<svg width="127" height="127" viewBox="0 0 127 127" fill="none" xmlns="http://www.w3.org/2000/svg">
<path d="M37.0635 23.0344C36.2162 23.0344 35.5286 23.7218 35.5286 24.5693V29.2664C35.5286 30.1142 36.2159 30.8013 37.0635 30.8013C37.9113 30.8013 38.5984 30.1142 38.5984 29.2664V24.5691C38.5984 23.7218 37.9113 23.0344 37.0635 23.0344Z" fill="#70F935"/>
<path d="M42.7978 8.25773C42.7978 8.25773 42.7973 8.25773 42.7973 8.25723L37.9671 3.64356C37.4608 3.15764 36.6673 3.15764 36.1611 3.64207L31.3291 8.25748C30.9412 8.62856 30.8199 9.19014 31.0196 9.68821C31.2197 10.1863 31.6955 10.5085 32.2323 10.5085H35.5377L35.5514 17.9946C35.5533 18.8419 36.2397 19.5275 37.0863 19.5275C37.0873 19.5275 37.0883 19.5275 37.0893 19.5275C37.9366 19.525 38.6232 18.8367 38.6212 17.9894L38.6076 10.5088H41.8952C42.4314 10.5088 42.9072 10.1865 43.1074 9.68896C43.3073 9.19063 43.1858 8.62881 42.7978 8.25773Z" fill="#70F935"/>
<path d="M89.9362 23.0344C89.0888 23.0344 88.4012 23.7218 88.4012 24.5693V29.2664C88.4012 30.1142 89.0886 30.8013 89.9362 30.8013C90.784 30.8013 91.4711 30.1142 91.4711 29.2664V24.5691C91.4711 23.7218 90.784 23.0344 89.9362 23.0344Z" fill="#70F935"/>
<path d="M95.6712 8.25773L95.6703 8.25724L90.84 3.64357C90.3333 3.15665 89.5393 3.15764 89.034 3.64208L84.2023 8.25699C83.8144 8.62757 83.6921 9.18964 83.8917 9.68772C84.0914 10.1863 84.5677 10.5085 85.1044 10.5085H88.4099L88.4236 17.9946C88.4255 18.8419 89.1119 19.5275 89.9585 19.5275C89.96 19.5275 89.9605 19.5275 89.9614 19.5275C90.8093 19.525 91.4954 18.8367 91.4934 17.9894L91.4797 10.5085H94.7684C95.3051 10.5085 95.7809 10.1863 95.9811 9.68822C96.18 9.19014 96.0594 8.62881 95.6712 8.25773Z" fill="#70F935"/>
<path d="M63.7676 3.328C56.4711 3.328 50.5557 9.24293 50.5557 16.5395C50.5557 23.836 56.4711 29.7519 63.7676 29.7519C71.0647 29.7519 76.9796 23.836 76.9796 16.5395C76.9796 9.24293 71.0647 3.328 63.7676 3.328ZM70.3987 15.6373C70.3987 17.2119 69.72 18.7119 68.5368 19.7514L64.6566 23.1611C64.4034 23.3833 64.0859 23.495 63.7681 23.495C63.4499 23.495 63.1329 23.3836 62.8791 23.1611L58.9994 19.7514C57.816 18.7124 57.1376 17.2124 57.1376 15.6373V14.9299C57.1376 12.9058 58.7382 11.23 60.7062 11.1941C61.9311 11.1916 63.0912 11.7857 63.7676 12.7622C64.4309 11.804 65.5379 11.1936 66.7616 11.1936C66.7839 11.1936 66.8067 11.1941 66.8288 11.1941C68.7973 11.23 70.3984 12.9056 70.3984 14.9299L70.3987 15.6373Z" fill="#FF2525"/>
<path d="M95.3306 44.1255C95.8247 43.6324 95.8247 42.8319 95.3311 42.3378L90.8048 37.8114C90.3116 37.3183 89.5112 37.3183 89.0181 37.8114L70.8124 55.9263C70.2727 56.4666 69.5407 56.6786 68.7772 56.6786H58.8035C58.0395 56.6786 57.308 56.4666 56.7683 55.9263L38.5185 37.7224C38.0253 37.2293 37.2254 37.2521 36.7323 37.7452L32.2044 42.2845C31.7113 42.7781 31.7113 43.583 32.2044 44.0761L52.5574 64.4321C53.6969 65.5716 54.2347 67.1822 54.0095 68.7781L46.678 122.357C46.583 123.071 47.1411 123.651 47.8611 123.651H55.1441C55.7414 123.651 56.2434 123.273 56.3275 122.681L60.2734 94.0762C60.3404 93.5907 60.5021 93.1482 60.7365 92.7466C61.9807 90.6315 65.1897 90.6392 66.4285 92.7543C66.6629 93.1559 66.8248 93.6173 66.898 94.1037L70.8434 122.679C70.9273 123.271 71.4291 123.651 72.0266 123.651H79.31C80.0299 123.651 80.588 123.072 80.4932 122.358L73.4499 68.7918C73.2334 67.2028 73.7736 65.6192 74.9087 64.4862L95.3306 44.1255ZM66.9379 75.6254L63.7696 77.8502L63.8202 77.8492L63.8721 77.8502V77.8477L60.6504 75.6254C60.5569 75.56 60.4865 75.4439 60.5133 75.3328L63.0887 64.4028C63.1071 64.3224 63.0838 64.2386 63.0349 64.1726L61.2649 61.6812C61.1292 61.4972 61.2572 61.1435 61.4864 61.1435H66.0494C66.2781 61.1435 66.4098 61.4972 66.2742 61.6812L64.5073 64.1262C64.459 64.1922 64.4413 64.2989 64.4604 64.3795L67.0496 75.3211C67.0756 75.432 67.0314 75.56 66.9379 75.6254Z" fill="#020F4F"/>
<path d="M63.7677 34.3418C58.6879 34.3418 54.5701 38.4604 54.5701 43.5399C54.5701 48.6194 58.6881 52.7379 63.7677 52.7379C68.8472 52.7379 72.9657 48.6194 72.9657 43.5399C72.9657 38.4604 68.8474 34.3418 63.7677 34.3418ZM67.9941 45.0562C67.6607 47.1442 65.8822 48.6596 63.7652 48.6596C61.6694 48.6596 59.8939 47.1621 59.5432 45.0988C59.4883 44.7751 59.5781 44.4447 59.7892 44.194C60.0001 43.9424 60.3101 43.805 60.638 43.804L66.8866 43.7802C66.8881 43.7802 66.8901 43.7802 66.8918 43.7802C67.2177 43.7802 67.527 43.9139 67.7391 44.1615C67.9524 44.41 68.0455 44.7325 67.9941 45.0562Z" fill="#020F4F"/>
</svg>
