<svg width="211" height="85" viewBox="0 0 211 85" fill="none" xmlns="http://www.w3.org/2000/svg">
<rect x="0.108643" y="0.869507" width="210.652" height="83.2174" rx="7.5" fill="#F1F3FF" fill-opacity="0.2"/>
<g clip-path="url(#clip0_136_1204)">
<path d="M187.68 9.8696H23.198C22.5984 9.8696 22.006 9.8696 21.4081 9.87286C20.9075 9.87612 20.4109 9.88559 19.9056 9.89356C18.8077 9.90645 17.7124 10.0028 16.6292 10.1817C15.5475 10.3645 14.4997 10.7091 13.5212 11.204C12.5439 11.703 11.651 12.3514 10.8747 13.1257C10.0944 13.8978 9.44388 14.7903 8.94829 15.7688C8.45133 16.7453 8.10673 17.7918 7.92641 18.872C7.74437 19.9509 7.64641 21.0422 7.63341 22.1361C7.61824 22.636 7.61664 23.1376 7.60864 23.6375V61.3238C7.61664 61.8301 7.61824 62.3205 7.63341 62.8269C7.64641 63.9208 7.74437 65.0121 7.92641 66.0909C8.10624 67.1718 8.45085 68.2188 8.94829 69.1957C9.44366 70.1711 10.0942 71.0599 10.8747 71.8278C11.648 72.6055 12.5416 73.2543 13.5212 73.7495C14.4997 74.2457 15.5474 74.5924 16.6292 74.778C17.7126 74.9555 18.8078 75.0519 19.9056 75.0663C20.4109 75.0774 20.9075 75.0837 21.4081 75.0837C22.006 75.087 22.5984 75.087 23.198 75.087H187.68C188.268 75.087 188.865 75.087 189.453 75.0837C189.951 75.0837 190.462 75.0774 190.96 75.0663C192.056 75.0526 193.149 74.9563 194.23 74.778C195.315 74.5911 196.367 74.2445 197.35 73.7495C198.329 73.2541 199.221 72.6052 199.994 71.8278C200.773 71.0569 201.424 70.1687 201.926 69.1957C202.42 68.2181 202.761 67.1711 202.938 66.0909C203.121 65.0119 203.222 63.9209 203.242 62.8269C203.248 62.3205 203.248 61.8301 203.248 61.3238C203.261 60.7315 203.261 60.1424 203.261 59.5405V25.4176C203.261 24.8206 203.261 24.2282 203.248 23.6375C203.248 23.1376 203.248 22.636 203.242 22.1361C203.222 21.042 203.121 19.951 202.938 18.8719C202.761 17.7923 202.419 16.746 201.926 15.7687C200.917 13.8074 199.316 12.2109 197.35 11.2038C196.367 10.7102 195.315 10.3656 194.23 10.1815C193.149 10.0018 192.056 9.90548 190.96 9.89334C190.462 9.88538 189.951 9.87582 189.453 9.87265C188.865 9.86938 188.268 9.86938 187.68 9.86938V9.8696Z" fill="white"/>
<path d="M21.416 73.6603C20.9179 73.6603 20.4317 73.6539 19.9375 73.6428C18.9136 73.6295 17.8921 73.5406 16.8814 73.3769C15.939 73.215 15.026 72.914 14.1726 72.4836C13.3271 72.0568 12.5559 71.4971 11.8885 70.8261C11.2115 70.163 10.6479 69.3938 10.22 68.5492C9.78735 67.6991 9.48793 66.7878 9.33218 65.8472C9.16397 64.8366 9.07297 63.8146 9.05995 62.7902C9.04958 62.4463 9.03601 61.3014 9.03601 61.3014V23.6375C9.03601 23.6375 9.05046 22.5102 9.06003 22.179C9.0725 21.1562 9.16297 20.1358 9.33067 19.1267C9.48672 18.1835 9.78636 17.2696 10.2192 16.4167C10.6456 15.5727 11.2061 14.803 11.879 14.1375C12.5512 13.4656 13.3248 12.9031 14.1718 12.4704C15.0233 12.0414 15.9345 11.7424 16.875 11.5835C17.8891 11.4182 18.9141 11.3287 19.9415 11.3161L21.4168 11.2961H189.445L190.938 11.3168C191.956 11.3289 192.971 11.4175 193.976 11.5819C194.926 11.7428 195.847 12.0439 196.708 12.4752C198.405 13.3472 199.786 14.7268 200.657 16.4207C201.083 17.2677 201.378 18.1741 201.532 19.1092C201.701 20.1266 201.796 21.155 201.816 22.1861C201.821 22.6479 201.821 23.1439 201.821 23.6375C201.833 24.2489 201.833 24.8308 201.833 25.4176V59.5404C201.833 60.1327 201.833 60.7107 201.821 61.2934C201.821 61.8236 201.821 62.3094 201.814 62.8092C201.795 63.822 201.702 64.8321 201.535 65.8313C201.382 66.7786 201.084 67.697 200.652 68.5541C200.221 69.3895 199.66 70.152 198.991 70.8134C198.323 71.488 197.551 72.0509 196.703 72.4805C195.844 72.9142 194.925 73.2164 193.976 73.3769C192.965 73.5415 191.944 73.6304 190.92 73.6428C190.441 73.6539 189.94 73.6603 189.453 73.6603L187.68 73.6635L21.416 73.6603Z" fill="white"/>
<path d="M48.4785 42.2978C48.4967 40.8826 48.8737 39.4951 49.5742 38.2642C50.2748 37.0334 51.2762 35.9993 52.4852 35.258C51.7171 34.1642 50.7039 33.264 49.5259 32.6289C48.3479 31.9939 47.0377 31.6415 45.6992 31.5997C42.8441 31.3009 40.0762 33.3034 38.6213 33.3034C37.1382 33.3034 34.8981 31.6294 32.486 31.6789C30.9257 31.7292 29.4051 32.1816 28.0723 32.9922C26.7395 33.8027 25.64 34.9437 24.8809 36.304C21.5927 41.9811 24.0454 50.3247 27.1953 54.9137C28.7712 57.1609 30.6131 59.6709 33.0231 59.5819C35.3814 59.4844 36.2622 58.0823 39.1089 58.0823C41.9292 58.0823 42.7556 59.5819 45.2145 59.5253C47.7451 59.4844 49.3395 57.2682 50.8602 54.9998C51.9925 53.3987 52.8638 51.6291 53.4419 49.7565C51.9717 49.1365 50.717 48.0985 49.8344 46.7721C48.9517 45.4458 48.4802 43.8896 48.4785 42.2978Z" fill="black"/>
<path d="M43.834 28.5816C45.2138 26.9299 45.8936 24.8068 45.729 22.6633C43.621 22.8841 41.6737 23.8888 40.2753 25.4772C39.5916 26.2531 39.0679 27.1559 38.7342 28.1338C38.4006 29.1117 38.2635 30.1456 38.3307 31.1764C39.3851 31.1872 40.4282 30.9593 41.3815 30.5098C42.3347 30.0604 43.1733 29.4011 43.834 28.5816V28.5816Z" fill="black"/>
<path d="M76.7725 54.1189H69.0333L67.1747 59.5913H63.8967L71.2271 39.3446H74.6329L81.9633 59.5913H78.6294L76.7725 54.1189ZM69.8348 51.5936H75.9694L72.9452 42.7122H72.8605L69.8348 51.5936Z" fill="black"/>
<path d="M97.7944 52.2114C97.7944 56.7986 95.3323 59.7458 91.6168 59.7458C90.6756 59.7949 89.7396 59.5787 88.9159 59.122C88.0922 58.6652 87.4141 57.9864 86.9593 57.1632H86.889V64.4747H83.8505V44.8299H86.7916V47.2851H86.8475C87.3232 46.4659 88.0127 45.7906 88.8427 45.331C89.6727 44.8715 90.612 44.6449 91.5609 44.6755C95.3179 44.6755 97.7944 47.637 97.7944 52.2114ZM94.6713 52.2114C94.6713 49.2229 93.1225 47.258 90.7594 47.258C88.4378 47.258 86.8762 49.2642 86.8762 52.2114C86.8762 55.1857 88.4378 57.1776 90.7594 57.1776C93.1225 57.1776 94.6712 55.2271 94.6712 52.2114H94.6713Z" fill="black"/>
<path d="M114.088 52.2114C114.088 56.7986 111.625 59.7458 107.909 59.7458C106.968 59.7949 106.032 59.5787 105.208 59.122C104.385 58.6652 103.707 57.9864 103.252 57.1632H103.182V64.4747H100.143V44.8299H103.084V47.2851H103.14C103.616 46.4659 104.305 45.7906 105.135 45.331C105.965 44.8715 106.905 44.6449 107.853 44.6755C111.611 44.6755 114.088 47.637 114.088 52.2114ZM110.964 52.2114C110.964 49.2229 109.415 47.258 107.052 47.258C104.73 47.258 103.169 49.2642 103.169 52.2114C103.169 55.1857 104.73 57.1776 107.052 57.1776C109.415 57.1776 110.964 55.2271 110.964 52.2114V52.2114Z" fill="black"/>
<path d="M124.854 53.95C125.079 55.9578 127.035 57.2761 129.708 57.2761C132.269 57.2761 134.112 55.9578 134.112 54.1474C134.112 52.5759 133.001 51.6349 130.369 50.99L127.738 50.3579C124.01 49.4599 122.279 47.7212 122.279 44.8998C122.279 41.4064 125.332 39.007 129.665 39.007C133.957 39.007 136.898 41.4064 136.997 44.8998H133.93C133.746 42.8792 132.071 41.6596 129.624 41.6596C127.176 41.6596 125.501 42.8936 125.501 44.6896C125.501 46.121 126.571 46.9633 129.188 47.6081L131.425 48.1558C135.59 49.1382 137.32 50.8069 137.32 53.7684C137.32 57.5563 134.296 59.9287 129.483 59.9287C124.98 59.9287 121.94 57.612 121.744 53.9499L124.854 53.95Z" fill="black"/>
<path d="M143.881 41.3365V44.8299H146.696V47.2294H143.881V55.3672C143.881 56.6314 144.444 57.2206 145.682 57.2206C146.016 57.2147 146.35 57.1913 146.681 57.1504V59.5356C146.125 59.6393 145.559 59.6862 144.994 59.6757C141.997 59.6757 140.828 58.5532 140.828 55.6904V47.2294H138.675V44.8299H140.828V41.3365H143.881Z" fill="black"/>
<path d="M148.324 52.2112C148.324 47.5667 151.067 44.6482 155.345 44.6482C159.637 44.6482 162.367 47.5667 162.367 52.2112C162.367 56.8685 159.651 59.7743 155.345 59.7743C151.04 59.7743 148.324 56.8685 148.324 52.2112ZM159.271 52.2112C159.271 49.0252 157.807 47.1448 155.345 47.1448C152.883 47.1448 151.419 49.0395 151.419 52.2112C151.419 55.41 152.883 57.2761 155.345 57.2761C157.807 57.2761 159.271 55.41 159.271 52.2112H159.271Z" fill="black"/>
<path d="M164.872 44.8298H167.77V47.3423H167.841C168.037 46.5576 168.498 45.8641 169.146 45.3784C169.795 44.8927 170.591 44.6444 171.401 44.6753C171.751 44.6741 172.101 44.712 172.442 44.7884V47.6225C172 47.4878 171.539 47.426 171.077 47.4394C170.636 47.4215 170.196 47.4992 169.787 47.6669C169.379 47.8347 169.011 48.0886 168.711 48.4112C168.41 48.7339 168.183 49.1176 168.044 49.5361C167.906 49.9546 167.861 50.3979 167.911 50.8356V59.5912H164.872L164.872 44.8298Z" fill="black"/>
<path d="M186.452 55.2556C186.043 57.9353 183.426 59.7743 180.078 59.7743C175.771 59.7743 173.099 56.8971 173.099 52.2813C173.099 47.6511 175.786 44.6482 179.95 44.6482C184.045 44.6482 186.621 47.4537 186.621 51.9294V52.9676H176.166V53.1507C176.118 53.6939 176.186 54.2412 176.366 54.7562C176.546 55.2711 176.834 55.742 177.211 56.1374C177.587 56.5329 178.044 56.8439 178.55 57.0498C179.057 57.2558 179.601 57.3519 180.148 57.3318C180.866 57.3989 181.587 57.2331 182.202 56.859C182.818 56.4849 183.297 55.9225 183.566 55.2556L186.452 55.2556ZM176.18 50.8499H183.581C183.608 50.3614 183.534 49.8726 183.363 49.4141C183.192 48.9556 182.927 48.5373 182.586 48.1856C182.245 47.8338 181.835 47.556 181.381 47.3698C180.928 47.1836 180.44 47.0929 179.95 47.1034C179.455 47.1005 178.965 47.1953 178.507 47.3823C178.049 47.5694 177.633 47.8451 177.282 48.1934C176.932 48.5417 176.654 48.9558 176.465 49.4117C176.276 49.8677 176.179 50.3565 176.18 50.8499V50.8499Z" fill="black"/>
<path d="M69.4549 24.1048C70.0919 24.0592 70.7312 24.1552 71.3265 24.3858C71.9218 24.6164 72.4584 24.9758 72.8976 25.4383C73.3367 25.9007 73.6674 26.4546 73.8659 27.0599C74.0644 27.6652 74.1257 28.3069 74.0454 28.9388C74.0454 32.0468 72.3609 33.8333 69.4549 33.8333H65.931V24.1048H69.4549ZM67.4463 32.4575H69.2857C69.7409 32.4846 70.1964 32.4102 70.6191 32.2396C71.0418 32.0691 71.4211 31.8067 71.7293 31.4715C72.0375 31.1363 72.2668 30.7369 72.4007 30.3022C72.5345 29.8675 72.5695 29.4085 72.503 28.9586C72.5646 28.5105 72.5261 28.0543 72.3902 27.6228C72.2543 27.1913 72.0244 26.7951 71.7169 26.4626C71.4094 26.1301 71.032 25.8696 70.6117 25.6996C70.1914 25.5297 69.7385 25.4545 69.2857 25.4796H67.4463V32.4575Z" fill="black"/>
<path d="M75.757 30.1592C75.7107 29.6767 75.7661 29.1899 75.9195 28.73C76.0729 28.2701 76.3211 27.8473 76.648 27.4886C76.9749 27.1299 77.3734 26.8434 77.8178 26.6473C78.2623 26.4512 78.743 26.3499 79.229 26.3499C79.7151 26.3499 80.1958 26.4512 80.6402 26.6473C81.0847 26.8434 81.4832 27.1299 81.8101 27.4886C82.137 27.8473 82.3851 28.2701 82.5386 28.73C82.692 29.1899 82.7473 29.6767 82.701 30.1592C82.7482 30.6421 82.6935 31.1296 82.5405 31.5902C82.3875 32.0509 82.1395 32.4745 81.8125 32.8339C81.4855 33.1932 81.0867 33.4804 80.6418 33.6769C80.1969 33.8735 79.7157 33.975 79.229 33.975C78.7424 33.975 78.2612 33.8735 77.8163 33.6769C77.3713 33.4804 76.9726 33.1932 76.6456 32.8339C76.3186 32.4745 76.0706 32.0509 75.9176 31.5902C75.7645 31.1296 75.7099 30.6421 75.757 30.1592V30.1592ZM81.2065 30.1592C81.2065 28.5677 80.4896 27.6371 79.2314 27.6371C77.9684 27.6371 77.258 28.5677 77.258 30.1592C77.258 31.7634 77.9685 32.6868 79.2314 32.6868C80.4896 32.6868 81.2065 31.757 81.2065 30.1592H81.2065Z" fill="black"/>
<path d="M91.9316 33.8332H90.4243L88.9026 28.426H88.7877L87.2724 33.8332H85.7795L83.7501 26.4915H85.2239L86.5427 32.0936H86.6513L88.165 26.4915H89.5589L91.0725 32.0936H91.1875L92.5 26.4915H93.953L91.9316 33.8332Z" fill="black"/>
<path d="M95.6598 26.4915H97.0585V27.6578H97.1671C97.3513 27.2389 97.6619 26.8877 98.0558 26.6533C98.4496 26.4188 98.907 26.3127 99.3641 26.3498C99.7223 26.3229 100.082 26.3768 100.417 26.5074C100.751 26.6379 101.052 26.8419 101.297 27.1042C101.541 27.3664 101.724 27.6802 101.83 28.0223C101.937 28.3644 101.965 28.726 101.912 29.0804V33.8331H100.459V29.4443C100.459 28.2644 99.9453 27.6777 98.8707 27.6777C98.6275 27.6664 98.3847 27.7077 98.159 27.7987C97.9333 27.8897 97.73 28.0283 97.563 28.2051C97.396 28.3818 97.2693 28.5924 97.1916 28.8225C97.1139 29.0526 97.087 29.2967 97.1128 29.5382V33.8332H95.6598L95.6598 26.4915Z" fill="black"/>
<path d="M104.228 23.6255H105.681V33.8332H104.228V23.6255Z" fill="black"/>
<path d="M107.7 30.1592C107.654 29.6767 107.71 29.1899 107.863 28.7299C108.017 28.27 108.265 27.8472 108.592 27.4885C108.919 27.1298 109.317 26.8432 109.762 26.6471C110.206 26.451 110.687 26.3497 111.173 26.3497C111.659 26.3497 112.14 26.451 112.584 26.6471C113.029 26.8432 113.427 27.1298 113.754 27.4885C114.081 27.8472 114.329 28.27 114.483 28.7299C114.636 29.1899 114.692 29.6767 114.645 30.1592C114.692 30.6422 114.638 31.1296 114.485 31.5903C114.331 32.0509 114.083 32.4745 113.756 32.8339C113.429 33.1932 113.031 33.4804 112.586 33.6769C112.141 33.8734 111.66 33.975 111.173 33.975C110.686 33.975 110.205 33.8734 109.76 33.6769C109.315 33.4804 108.916 33.1932 108.589 32.8339C108.262 32.4745 108.014 32.0509 107.861 31.5903C107.708 31.1296 107.653 30.6422 107.7 30.1592V30.1592ZM113.15 30.1592C113.15 28.5678 112.433 27.6371 111.175 27.6371C109.912 27.6371 109.201 28.5678 109.201 30.1592C109.201 31.7634 109.912 32.6868 111.175 32.6868C112.433 32.6868 113.15 31.757 113.15 30.1592H113.15Z" fill="black"/>
<path d="M116.175 31.757C116.175 30.4355 117.162 29.6736 118.913 29.5653L120.908 29.4507V28.817C120.908 28.0416 120.393 27.6037 119.4 27.6037C118.589 27.6037 118.027 27.9007 117.866 28.4197H116.459C116.608 27.1587 117.797 26.3499 119.467 26.3499C121.313 26.3499 122.354 27.2662 122.354 28.817V33.8333H120.955V32.8015H120.84C120.607 33.1716 120.279 33.4733 119.891 33.6759C119.502 33.8784 119.067 33.9744 118.629 33.9542C118.32 33.9863 118.008 33.9534 117.712 33.8577C117.416 33.762 117.144 33.6056 116.913 33.3986C116.682 33.1916 116.497 32.9386 116.37 32.6558C116.242 32.3731 116.176 32.0669 116.175 31.757V31.757ZM120.908 31.1297V30.5159L119.11 30.6305C118.096 30.6982 117.636 31.0421 117.636 31.6893C117.636 32.3501 118.211 32.7346 119.001 32.7346C119.233 32.758 119.467 32.7347 119.689 32.6661C119.911 32.5974 120.118 32.4849 120.296 32.3352C120.473 32.1854 120.619 32.0015 120.724 31.7944C120.83 31.5873 120.892 31.3613 120.908 31.1297V31.1297Z" fill="black"/>
<path d="M124.264 30.1592C124.264 27.8393 125.46 26.3697 127.32 26.3697C127.78 26.3486 128.237 26.4585 128.636 26.6865C129.036 26.9146 129.363 27.2515 129.578 27.6577H129.686V23.6255H131.139V33.8332H129.747V32.6733H129.632C129.4 33.0768 129.063 33.4095 128.655 33.6352C128.247 33.861 127.786 33.9713 127.32 33.9542C125.447 33.9543 124.264 32.4846 124.264 30.1592ZM125.765 30.1592C125.765 31.7164 126.501 32.6534 127.732 32.6534C128.956 32.6534 129.713 31.7029 129.713 30.1656C129.713 28.6354 128.949 27.6713 127.732 27.6713C126.509 27.6713 125.765 28.6147 125.765 30.1592H125.765Z" fill="black"/>
<path d="M137.151 30.1592C137.104 29.6767 137.16 29.1899 137.313 28.73C137.467 28.2701 137.715 27.8473 138.042 27.4886C138.369 27.1299 138.767 26.8434 139.212 26.6473C139.656 26.4512 140.137 26.3499 140.623 26.3499C141.109 26.3499 141.589 26.4512 142.034 26.6473C142.478 26.8434 142.877 27.1299 143.204 27.4886C143.531 27.8473 143.779 28.2701 143.932 28.73C144.086 29.1899 144.141 29.6767 144.095 30.1592C144.142 30.6421 144.087 31.1296 143.934 31.5902C143.781 32.0509 143.533 32.4745 143.206 32.8339C142.879 33.1932 142.48 33.4804 142.035 33.6769C141.591 33.8735 141.109 33.975 140.623 33.975C140.136 33.975 139.655 33.8735 139.21 33.6769C138.765 33.4804 138.366 33.1932 138.039 32.8339C137.712 32.4745 137.464 32.0509 137.311 31.5902C137.158 31.1296 137.104 30.6421 137.151 30.1592V30.1592ZM142.6 30.1592C142.6 28.5677 141.883 27.6371 140.625 27.6371C139.362 27.6371 138.652 28.5677 138.652 30.1592C138.652 31.7634 139.362 32.6868 140.625 32.6868C141.883 32.6868 142.6 31.757 142.6 30.1592Z" fill="black"/>
<path d="M146.044 26.4915H147.443V27.6578H147.552C147.736 27.2389 148.046 26.8877 148.44 26.6533C148.834 26.4188 149.291 26.3127 149.749 26.3498C150.107 26.3229 150.467 26.3768 150.801 26.5074C151.136 26.6379 151.436 26.8419 151.681 27.1042C151.926 27.3664 152.108 27.6802 152.215 28.0223C152.321 28.3644 152.35 28.726 152.297 29.0804V33.8331H150.844V29.4443C150.844 28.2644 150.33 27.6777 149.255 27.6777C149.012 27.6664 148.769 27.7077 148.544 27.7987C148.318 27.8897 148.114 28.0283 147.948 28.2051C147.781 28.3818 147.654 28.5924 147.576 28.8225C147.498 29.0526 147.472 29.2967 147.497 29.5382V33.8332H146.044V26.4915Z" fill="black"/>
<path d="M160.507 24.6636V26.5249H162.102V27.7453H160.507V31.5205C160.507 32.2895 160.825 32.6263 161.548 32.6263C161.733 32.6257 161.918 32.6145 162.102 32.5928V33.7997C161.841 33.8463 161.577 33.871 161.312 33.8738C159.696 33.8738 159.052 33.3069 159.052 31.8915V27.7453H157.884V26.5248H159.052V24.6636H160.507Z" fill="black"/>
<path d="M164.087 23.6255H165.527V27.6713H165.642C165.835 27.2485 166.154 26.8954 166.556 26.66C166.958 26.4247 167.422 26.3186 167.887 26.3562C168.243 26.3368 168.599 26.3961 168.93 26.5299C169.261 26.6637 169.558 26.8686 169.8 27.13C170.042 27.3914 170.224 27.7029 170.331 28.0423C170.439 28.3816 170.47 28.7405 170.422 29.0932V33.8332H168.968V29.4506C168.968 28.278 168.42 27.684 167.394 27.684C167.144 27.6636 166.893 27.6979 166.658 27.7844C166.423 27.8709 166.209 28.0075 166.033 28.1848C165.856 28.3621 165.721 28.5757 165.635 28.8107C165.55 29.0457 165.518 29.2965 165.54 29.5454V33.8332H164.087L164.087 23.6255Z" fill="black"/>
<path d="M178.895 31.851C178.697 32.522 178.27 33.1024 177.686 33.4907C177.103 33.8789 176.402 34.0504 175.704 33.975C175.219 33.9878 174.737 33.8951 174.292 33.7035C173.846 33.5119 173.448 33.2259 173.124 32.8653C172.801 32.5048 172.56 32.0783 172.418 31.6156C172.276 31.1528 172.237 30.6648 172.303 30.1855C172.239 29.7047 172.279 29.2157 172.42 28.7516C172.561 28.2874 172.801 27.859 173.123 27.4953C173.445 27.1316 173.841 26.8411 174.286 26.6435C174.73 26.4458 175.212 26.3457 175.698 26.3499C177.747 26.3499 178.982 27.7455 178.982 30.0509V30.5565H173.784V30.6377C173.761 30.9071 173.795 31.1783 173.883 31.4339C173.972 31.6895 174.113 31.9238 174.297 32.1218C174.482 32.3198 174.706 32.4772 174.955 32.5838C175.204 32.6905 175.473 32.744 175.744 32.741C176.092 32.7826 176.444 32.7202 176.756 32.5617C177.068 32.4032 177.325 32.1558 177.496 31.8509L178.895 31.851ZM173.784 29.4849H177.502C177.521 29.2385 177.487 28.991 177.404 28.7583C177.32 28.5256 177.189 28.3129 177.019 28.1338C176.848 27.9547 176.641 27.8131 176.413 27.7183C176.184 27.6234 175.938 27.5774 175.69 27.583C175.439 27.5799 175.189 27.6269 174.957 27.7214C174.724 27.8159 174.512 27.9559 174.335 28.1331C174.157 28.3104 174.017 28.5213 173.922 28.7535C173.827 28.9856 173.78 29.2343 173.784 29.4849H173.784Z" fill="black"/>
</g>
<defs>
<clipPath id="clip0_136_1204">
<rect width="195.652" height="65.2174" fill="white" transform="translate(7.60864 9.86951)"/>
</clipPath>
</defs>
</svg>
