<svg width="127" height="127" viewBox="0 0 127 127" fill="none" xmlns="http://www.w3.org/2000/svg">
<path d="M106.853 18.0216H20.1403C17.889 18.0216 16.0639 19.8467 16.0639 22.098V88.952C16.0639 91.2034 17.889 93.0284 20.1403 93.0284H106.853C109.105 93.0284 110.93 91.2034 110.93 88.952V22.098C110.93 19.8467 109.105 18.0216 106.853 18.0216Z" fill="#67BAEB"/>
<path d="M16.0639 78.139V88.9495C16.0639 90.0307 16.4934 91.0675 17.2579 91.832C18.0224 92.5964 19.0592 93.0259 20.1403 93.0259H106.86C107.941 93.0259 108.978 92.5964 109.742 91.832C110.507 91.0675 110.936 90.0307 110.936 88.9495V78.139H16.0639Z" fill="#4D4C78"/>
<path d="M16.0639 78.139V88.9495C16.0639 90.0307 16.4934 91.0675 17.2579 91.832C18.0224 92.5964 19.0592 93.0259 20.1403 93.0259H106.86C107.941 93.0259 108.978 92.5964 109.742 91.832C110.507 91.0675 110.936 90.0307 110.936 88.9495V78.139H16.0639Z" fill="#4D4C78"/>
<path d="M24.5946 89.7673C23.5119 89.7673 22.4734 89.3372 21.7078 88.5716C20.9422 87.8059 20.512 86.7675 20.512 85.6847V18.8332C20.5134 18.5607 20.5403 18.289 20.5926 18.0216H20.1403C19.0597 18.0232 18.0238 18.4532 17.2597 19.2174C16.4956 19.9815 16.0656 21.0174 16.0639 22.098V88.9496C16.0639 90.0307 16.4934 91.0675 17.2579 91.832C18.0224 92.5965 19.0592 93.0259 20.1403 93.0259H106.86C107.799 93.0253 108.709 92.7009 109.437 92.1073C110.165 91.5137 110.666 90.6872 110.856 89.7673H24.5946Z" fill="#46A1F8"/>
<path d="M24.5946 89.7673C23.5119 89.7673 22.4734 89.3372 21.7078 88.5715C20.9422 87.8059 20.512 86.7675 20.512 85.6847V78.139H16.0639V88.9495C16.0639 90.0307 16.4934 91.0675 17.2579 91.832C18.0224 92.5964 19.0592 93.0259 20.1403 93.0259H106.86C107.799 93.0253 108.709 92.7008 109.437 92.1072C110.165 91.5136 110.666 90.6872 110.856 89.7673H24.5946Z" fill="#323150"/>
<path d="M63.5 88.7265C65.1355 88.7265 66.4613 87.4007 66.4613 85.7652C66.4613 84.1298 65.1355 82.804 63.5 82.804C61.8645 82.804 60.5387 84.1298 60.5387 85.7652C60.5387 87.4007 61.8645 88.7265 63.5 88.7265Z" fill="#323150"/>
<path d="M78.2506 107.101H48.7494L54.6038 93.0259H72.3962L78.2506 107.101Z" fill="#4D4C78"/>
<path d="M66.3745 96.9474H74.0317L72.3962 93.0259H54.6038L48.7494 107.101H58.1412L60.8237 100.652C61.2792 99.5551 62.0496 98.6177 63.0376 97.9584C64.0255 97.299 65.1867 96.9472 66.3745 96.9474Z" fill="#323150"/>
<path d="M45.3731 107.101H81.6269C82.8954 107.101 84.1119 107.605 85.0088 108.502C85.9057 109.399 86.4096 110.616 86.4096 111.884H40.5905C40.5905 110.616 41.0943 109.399 41.9913 108.502C42.8882 107.605 44.1047 107.101 45.3731 107.101Z" fill="#323150"/>
<path d="M101.439 78.139H80.58C79.2935 78.139 78.2506 79.1819 78.2506 80.4684C78.2506 81.7549 79.2935 82.7978 80.58 82.7978H101.439C102.725 82.7978 103.768 81.7549 103.768 80.4684C103.768 79.1819 102.725 78.139 101.439 78.139Z" fill="#64639C"/>
<path d="M72.8056 98.831L72.7998 98.8333C71.8538 99.2136 71.3952 100.289 71.7755 101.235L73.228 104.848C73.6083 105.794 74.6835 106.253 75.6295 105.872L75.6353 105.87C76.5813 105.49 77.0399 104.415 76.6596 103.469L75.2071 99.8553C74.8268 98.9093 73.7516 98.4507 72.8056 98.831Z" fill="#64639C"/>
<path d="M63.469 52.4293C62.6174 52.4293 61.785 52.1768 61.0769 51.7037C60.3688 51.2306 59.817 50.5582 59.4911 49.7714C59.1652 48.9847 59.08 48.1189 59.2461 47.2837C59.4122 46.4485 59.8223 45.6813 60.4244 45.0792C61.0266 44.477 61.7938 44.067 62.629 43.9008C63.4642 43.7347 64.3299 43.82 65.1167 44.1459C65.9034 44.4717 66.5758 45.0236 67.049 45.7317C67.5221 46.4397 67.7746 47.2722 67.7746 48.1237C67.7746 48.6891 67.6632 49.249 67.4468 49.7714C67.2305 50.2938 66.9133 50.7684 66.5135 51.1683C66.1137 51.5681 65.639 51.8852 65.1167 52.1016C64.5943 52.318 64.0344 52.4293 63.469 52.4293Z" fill="#DE3226"/>
<path d="M53.3834 71.3492C52.638 71.3601 51.9028 71.1742 51.2522 70.8102C50.0194 70.1164 49.214 68.803 48.8547 66.9197C48.5264 65.1912 48.5821 63.0415 49.0158 60.5201C49.8955 55.4091 52.2497 49.3008 55.6384 43.3225C59.0271 37.3442 63.0602 32.1774 66.9879 28.8011C68.9331 27.1346 70.7483 25.9823 72.3962 25.3752C74.199 24.7185 75.7416 24.7371 76.9682 25.431C78.1948 26.1248 79.0064 27.4382 79.3657 29.3277C79.694 31.0499 79.6383 33.1996 79.2046 35.721C78.3249 40.832 75.977 46.9404 72.582 52.9249C69.1871 58.9094 65.1603 64.0637 61.2326 67.4463C59.2935 69.1128 57.4721 70.265 55.8242 70.866C54.9445 71.1881 54.133 71.3492 53.3834 71.3492ZM74.8309 26.0443C74.2238 26.0443 73.5423 26.1806 72.7927 26.4531C71.2749 27.0107 69.5712 28.0949 67.7375 29.6684C65.9037 31.242 63.9832 33.2926 62.1123 35.6777C58.0633 40.8846 54.7931 46.6528 52.4045 52.801C51.3204 55.6384 50.5646 58.2961 50.1433 60.7122C49.7221 63.1283 49.6787 65.1169 49.9822 66.7029C50.2858 68.2888 50.8929 69.2924 51.816 69.8128C52.7391 70.3332 53.9533 70.327 55.4278 69.788C56.9022 69.249 58.6492 68.1525 60.483 66.5728C62.3167 64.993 64.2372 62.9548 66.1143 60.5697C68.1398 57.9715 69.9683 55.2256 71.5846 52.3549C73.2697 49.3875 74.6946 46.389 75.8159 43.4402C76.9001 40.609 77.6621 37.9451 78.0771 35.529C78.4922 33.1129 78.5418 31.1305 78.2382 29.5445C77.9346 27.9586 77.3275 26.955 76.4044 26.4284C75.9218 26.1668 75.3797 26.0345 74.8309 26.0443Z" fill="#323150"/>
<path d="M53.3834 71.3492C52.638 71.3601 51.9028 71.1742 51.2522 70.8102C50.0194 70.1164 49.214 68.803 48.8547 66.9197C48.5264 65.1912 48.5821 63.0415 49.0158 60.5201C49.8955 55.4091 52.2497 49.3008 55.6384 43.3225C59.0271 37.3442 63.0602 32.1774 66.9879 28.8011C68.9331 27.1346 70.7483 25.9823 72.3962 25.3752C74.199 24.7185 75.7416 24.7371 76.9682 25.431C78.1948 26.1248 79.0064 27.4382 79.3657 29.3277C79.694 31.0499 79.6383 33.1996 79.2046 35.721C78.3249 40.832 75.977 46.9404 72.582 52.9249C69.1871 58.9094 65.1603 64.0637 61.2326 67.4463C59.2935 69.1128 57.4721 70.265 55.8242 70.866C54.9445 71.1881 54.133 71.3492 53.3834 71.3492ZM74.8309 26.0443C74.2238 26.0443 73.5423 26.1806 72.7927 26.4531C71.2749 27.0107 69.5712 28.0949 67.7375 29.6684C65.9037 31.242 63.9832 33.2926 62.1123 35.6777C58.0633 40.8846 54.7931 46.6528 52.4045 52.801C51.3204 55.6384 50.5646 58.2961 50.1433 60.7122C49.7221 63.1283 49.6787 65.1169 49.9822 66.7029C50.2858 68.2888 50.8929 69.2924 51.816 69.8128C52.7391 70.3332 53.9533 70.327 55.4278 69.788C56.9022 69.249 58.6492 68.1525 60.483 66.5728C62.3167 64.993 64.2372 62.9548 66.1143 60.5697C68.1398 57.9715 69.9683 55.2256 71.5846 52.3549C73.2697 49.3875 74.6946 46.389 75.8159 43.4402C76.9001 40.609 77.6621 37.9451 78.0771 35.529C78.4922 33.1129 78.5418 31.1305 78.2382 29.5445C77.9346 27.9586 77.3275 26.955 76.4044 26.4284C75.9218 26.1668 75.3797 26.0345 74.8309 26.0443Z" fill="#323150"/>
<path d="M75.1221 71.1757C74.3993 71.1757 73.6125 71.027 72.7617 70.7297C71.1014 70.1535 69.2677 69.0322 67.2976 67.3967C63.3142 64.0761 59.2006 58.9899 55.7128 53.0612C52.2249 47.1325 49.7778 41.0612 48.8176 35.9688C48.3406 33.4536 48.2538 31.3039 48.5574 29.5755C48.8857 27.6798 49.6725 26.3602 50.8929 25.6416C52.1134 24.9229 53.6436 24.8796 55.4588 25.5115C57.119 26.0876 58.9528 27.2151 60.9229 28.8507C64.9063 32.165 69.0199 37.2574 72.5077 43.1862C75.9956 49.1149 78.4427 55.1861 79.4029 60.2785C79.8799 62.7937 79.9667 64.9434 79.6631 66.6719C79.3348 68.5614 78.548 69.8871 77.3337 70.6058C76.6832 70.9837 75.946 71.1757 75.1221 71.1757ZM53.1046 26.2177C52.4851 26.2177 51.9399 26.354 51.4691 26.6328C50.5584 27.1656 49.9575 28.2249 49.6849 29.7675C49.4123 31.3101 49.499 33.3731 49.9451 35.752C50.3911 38.1309 51.2027 40.8134 52.3302 43.6322C53.5011 46.5563 54.9755 49.5362 56.704 52.4788C58.4324 55.4215 60.3219 58.1536 62.3106 60.6007C64.2992 63.0477 66.1515 64.9434 68.0348 66.5108C69.9182 68.0782 71.6094 69.1127 73.1396 69.6455C74.6698 70.1783 75.8345 70.1535 76.7514 69.6146C77.6683 69.0756 78.263 68.0162 78.5356 66.4736C78.8082 64.931 78.7276 62.8681 78.2754 60.4891C77.8231 58.1102 77.0178 55.4277 75.8903 52.6151C74.7194 49.6848 73.245 46.7112 71.5165 43.7685C69.8544 40.9242 67.9802 38.2093 65.9099 35.6467C63.9956 33.2864 62.0689 31.2977 60.1856 29.7304C58.3023 28.163 56.611 27.1284 55.0809 26.5956C54.356 26.3416 53.6993 26.2177 53.1046 26.2177Z" fill="#323150"/>
<path d="M63.5991 57.8624C56.9456 57.8624 50.6885 56.9518 45.9368 55.2853C43.5207 54.4427 41.6188 53.4453 40.2683 52.3178C38.7939 51.085 38.0443 49.7468 38.0319 48.3282C38.0195 46.9095 38.7505 45.5651 40.2063 44.3075C41.5321 43.1614 43.4216 42.133 45.8253 41.2471C50.6885 39.4567 57.1562 38.4407 64.0328 38.385C70.9094 38.3292 77.3895 39.2399 82.2836 40.956C84.6997 41.7985 86.6016 42.8021 87.9522 43.9234C89.4266 45.1563 90.1762 46.5006 90.1886 47.9131C90.201 49.3256 89.47 50.6823 88.0141 51.9337C86.6883 53.0798 84.7988 54.1144 82.3951 54.9941C77.532 56.7907 71.0643 57.8067 64.1877 57.8624H63.5991ZM64.039 39.5311C60.7464 39.5458 57.4597 39.8109 54.2073 40.3241C51.2089 40.8011 48.5202 41.4764 46.2218 42.3251C43.9234 43.1738 42.1764 44.1217 40.956 45.1748C39.7355 46.228 39.1718 47.2626 39.178 48.322C39.1842 49.3813 39.8037 50.4283 41.0055 51.4381C42.2074 52.4479 44.0349 53.4082 46.3147 54.2073C48.5945 55.0065 51.3266 55.6446 54.3312 56.0783C57.5942 56.5355 60.8869 56.7467 64.1815 56.7102C67.4738 56.6944 70.7602 56.4314 74.0131 55.9234C77.0116 55.4402 79.7002 54.7649 81.9986 53.9224C84.297 53.0798 86.0441 52.1258 87.2645 51.0664C88.4849 50.007 89.0487 48.9848 89.0425 47.9193C89.0363 46.8537 88.4168 45.8129 87.2149 44.8093C86.0131 43.8057 84.1855 42.8393 81.9057 42.0401C79.6259 41.2409 76.8939 40.5966 73.8892 40.163C70.7669 39.7169 67.4587 39.5063 64.039 39.5311Z" fill="#323150"/>
<path d="M63.469 45.9307C63.0353 45.9307 62.6113 46.0593 62.2506 46.3003C61.89 46.5412 61.6089 46.8838 61.4429 47.2845C61.2769 47.6852 61.2335 48.1262 61.3181 48.5516C61.4027 48.977 61.6116 49.3678 61.9183 49.6745C62.225 49.9812 62.6158 50.19 63.0412 50.2747C63.4666 50.3593 63.9075 50.3159 64.3083 50.1499C64.709 49.9839 65.0515 49.7028 65.2925 49.3421C65.5335 48.9815 65.6621 48.5575 65.6621 48.1237C65.6621 47.5421 65.431 46.9843 65.0198 46.573C64.6085 46.1617 64.0507 45.9307 63.469 45.9307Z" fill="#B11A31"/>
<path d="M76.7824 28.1568C78.1065 28.1568 79.1799 27.0834 79.1799 25.7593C79.1799 24.4352 78.1065 23.3618 76.7824 23.3618C75.4583 23.3618 74.3849 24.4352 74.3849 25.7593C74.3849 27.0834 75.4583 28.1568 76.7824 28.1568Z" fill="#84B320"/>
<path d="M76.9682 72.3838C78.2923 72.3838 79.3657 71.3104 79.3657 69.9863C79.3657 68.6621 78.2923 67.5887 76.9682 67.5887C75.6441 67.5887 74.5707 68.6621 74.5707 69.9863C74.5707 71.3104 75.6441 72.3838 76.9682 72.3838Z" fill="#F4C23F"/>
<path d="M39.2089 50.1124C40.5331 50.1124 41.6065 49.039 41.6065 47.7149C41.6065 46.3908 40.5331 45.3174 39.2089 45.3174C37.8848 45.3174 36.8114 46.3908 36.8114 47.7149C36.8114 49.039 37.8848 50.1124 39.2089 50.1124Z" fill="#DE3226"/>
<path d="M77.4885 27.4507C76.8527 27.4507 76.2429 27.1981 75.7932 26.7485C75.3436 26.2989 75.091 25.689 75.091 25.0532C75.0901 24.5905 75.2259 24.1379 75.4813 23.7522C75.1807 23.9462 74.9273 24.2049 74.7397 24.5095C74.5521 24.8142 74.435 25.1569 74.3971 25.5126C74.3592 25.8684 74.4014 26.2281 74.5205 26.5654C74.6397 26.9027 74.8329 27.2091 75.0858 27.4621C75.3388 27.7151 75.6452 27.9082 75.9825 28.0274C76.3198 28.1466 76.6795 28.1887 77.0353 28.1508C77.391 28.1129 77.7338 27.9958 78.0384 27.8082C78.343 27.6206 78.6018 27.3672 78.7957 27.0666C78.4059 27.3174 77.9521 27.4507 77.4885 27.4507Z" fill="#4B7D27"/>
<path d="M77.6745 71.6714C77.2435 71.6713 76.8205 71.5551 76.45 71.3349C76.0795 71.1147 75.7752 70.7987 75.5692 70.4202C75.3631 70.0417 75.2629 69.6146 75.2791 69.1839C75.2952 68.7533 75.4272 68.3349 75.661 67.9729C75.3604 68.1669 75.107 68.4256 74.9194 68.7302C74.7318 69.0349 74.6148 69.3776 74.5768 69.7333C74.5389 70.0891 74.5811 70.4488 74.7003 70.7861C74.8194 71.1235 75.0126 71.4298 75.2655 71.6828C75.5185 71.9358 75.8249 72.1289 76.1622 72.2481C76.4995 72.3673 76.8593 72.4094 77.215 72.3715C77.5707 72.3336 77.9135 72.2165 78.2181 72.0289C78.5227 71.8413 78.7815 71.5879 78.9754 71.2873C78.5882 71.5389 78.1362 71.6723 77.6745 71.6714Z" fill="#F4A93F"/>
<path d="M39.9152 49.4061C39.4842 49.4061 39.0612 49.2898 38.6908 49.0696C38.3203 48.8494 38.016 48.5335 37.8099 48.1549C37.6039 47.7764 37.5036 47.3494 37.5198 46.9187C37.536 46.488 37.6679 46.0696 37.9018 45.7076C37.6012 45.9016 37.3478 46.1604 37.1602 46.465C36.9726 46.7696 36.8555 47.1123 36.8176 47.4681C36.7797 47.8238 36.8218 48.1835 36.941 48.5209C37.0602 48.8582 37.2533 49.1646 37.5063 49.4175C37.7593 49.6705 38.0656 49.8637 38.403 49.9828C38.7403 50.102 39.1 50.1442 39.4557 50.1062C39.8115 50.0683 40.1542 49.9513 40.4588 49.7637C40.7635 49.576 41.0222 49.3226 41.2162 49.022C40.8287 49.273 40.3769 49.4064 39.9152 49.4061Z" fill="#B11A31"/>
</svg>
