<svg width="276" height="322" viewBox="0 0 276 322" fill="none" xmlns="http://www.w3.org/2000/svg">
<path d="M138.065 321.283C214.244 321.283 276 286.202 276 242.927C276 199.653 214.244 164.572 138.065 164.572C61.8856 164.572 0.130005 199.653 0.130005 242.927C0.130005 286.202 61.8856 321.283 138.065 321.283Z" fill="#F5F5F5"/>
<path d="M38.9099 238.135C51.2517 238.135 61.2567 232.391 61.2567 225.305C61.2567 218.22 51.2517 212.476 38.9099 212.476C26.5681 212.476 16.5631 218.22 16.5631 225.305C16.5631 232.391 26.5681 238.135 38.9099 238.135Z" fill="#E6E6E6"/>
<path d="M231.974 241.075L241.78 246.712C241.78 246.712 236.773 230.982 239.44 215.123C240.446 209.137 242.609 206.156 243.369 204.556C244.13 202.957 249.98 193.045 244.77 188.513C239.558 183.98 227.421 193.099 228.078 217.503C228.415 230.026 231.974 241.075 231.974 241.075Z" fill="#031EA9"/>
<path opacity="0.5" d="M231.974 241.075L241.78 246.712C241.78 246.712 236.773 230.982 239.44 215.123C240.446 209.137 242.609 206.156 243.369 204.556C244.13 202.957 249.98 193.045 244.77 188.513C239.558 183.98 227.421 193.099 228.078 217.503C228.415 230.026 231.974 241.075 231.974 241.075Z" fill="black"/>
<path d="M236.533 244.045C236.391 244.045 236.257 243.958 236.204 243.817C236.167 243.715 232.428 233.48 232.547 217.026C232.667 200.495 241.307 191.647 241.394 191.56C241.531 191.423 241.752 191.423 241.888 191.559C242.026 191.696 242.026 191.917 241.89 192.054C241.804 192.139 233.364 200.802 233.247 217.031C233.129 233.346 236.822 243.472 236.86 243.573C236.927 243.755 236.836 243.955 236.654 244.023C236.615 244.038 236.573 244.045 236.533 244.045Z" fill="white"/>
<path d="M236.063 243.482L249.463 251.152C252.365 252.813 256.161 252.096 258.016 249.314C258.784 248.162 259.255 246.647 259.072 244.659C258.43 237.702 255.405 236.097 259.111 232.993C262.818 229.889 263.781 229.675 263.567 226.679C263.353 223.682 261.319 222.398 260.356 221.221C259.393 220.044 256.717 217.583 258.536 213.944C260.356 210.305 262.837 206.782 259.071 205.168C256.824 204.205 253.078 205.489 250.617 208.165C248.156 210.84 246.122 212.767 243.767 213.409C241.413 214.05 236.49 214.158 236.704 218.225C236.918 222.292 237.991 223.684 237.026 225.502C235.207 228.927 227.287 230.853 236.063 243.482Z" fill="#031EA9"/>
<path d="M242.687 247.624C242.509 247.624 242.356 247.488 242.339 247.306C242.317 247.065 240.278 223.043 256.796 207.058C256.934 206.924 257.156 206.927 257.29 207.066C257.425 207.205 257.421 207.427 257.282 207.561C241.003 223.315 243.013 247.004 243.036 247.242C243.054 247.434 242.913 247.604 242.721 247.623C242.709 247.623 242.698 247.624 242.687 247.624Z" fill="white"/>
<path d="M245.339 226.946C245.16 226.946 245.007 226.809 244.992 226.627C244.443 220.251 239.974 217.045 239.928 217.013C239.77 216.902 239.732 216.684 239.843 216.526C239.954 216.367 240.174 216.33 240.33 216.441C240.525 216.577 245.112 219.869 245.688 226.566C245.705 226.759 245.562 226.929 245.37 226.945C245.36 226.946 245.35 226.946 245.339 226.946Z" fill="white"/>
<path d="M244.196 231.071C244.114 231.071 244.032 231.042 243.965 230.984C243.82 230.856 243.806 230.635 243.933 230.49C244.104 230.295 248.236 225.729 257.939 226.944C258.13 226.968 258.266 227.143 258.242 227.335C258.219 227.526 258.037 227.658 257.851 227.638C248.54 226.47 244.499 230.907 244.459 230.952C244.39 231.031 244.294 231.071 244.196 231.071Z" fill="white"/>
<path d="M192.331 285.229L101.774 232.946C95.384 229.257 90.2047 219.361 90.2047 210.842V16.9276C90.2047 8.40861 95.3847 4.49281 101.774 8.18181L192.331 60.4648C198.721 64.1538 203.9 74.0504 203.9 82.5694V276.483C203.901 285.002 198.721 288.918 192.331 285.229Z" fill="#455A64"/>
<path d="M202.759 54.3866L112.202 2.10356C109.47 0.526464 106.961 0.343064 104.982 1.31186L104.98 1.31327C104.737 1.43227 104.502 1.56946 104.275 1.72276L94.1302 7.62096C96.1693 6.40226 98.8441 6.48977 101.775 8.18237L192.333 60.4654C198.722 64.1544 203.901 74.051 203.901 82.57V276.483C203.901 280.987 202.453 284.203 200.144 285.69L210.156 279.858L210.155 279.857C212.705 278.499 214.329 275.174 214.329 270.405V76.4912C214.329 67.9722 209.149 58.0756 202.759 54.3866Z" fill="#37474F"/>
<path d="M203.901 82.5698V276.483C203.901 280.987 202.452 284.203 200.143 285.69L210.155 279.858L210.154 279.856C212.704 278.499 214.328 275.174 214.328 270.405V76.491C214.328 76.4861 214.328 76.4805 214.328 76.4756L203.899 82.5306C203.9 82.5439 203.901 82.5565 203.901 82.5698Z" fill="#263238"/>
<path d="M214.329 91.5454L203.901 97.5661V102.267L214.329 96.2466V91.5454Z" fill="#37474F"/>
<path d="M209.76 122.831C208.827 123.369 208.071 122.798 208.071 121.554V111.441C208.071 110.197 208.827 108.752 209.76 108.214C210.693 107.676 211.449 108.247 211.449 109.491V119.604C211.448 120.847 210.692 122.292 209.76 122.831Z" fill="#37474F"/>
<path d="M208.071 121.554V111.441C208.071 110.197 208.827 108.752 209.76 108.214C210.166 107.979 210.534 107.966 210.825 108.117L210.827 108.105L209.566 107.45L209.564 107.461C209.268 107.293 208.889 107.3 208.469 107.543C207.537 108.082 206.78 109.526 206.78 110.77V120.882C206.78 121.554 207.005 122.02 207.354 122.231L207.352 122.241L208.676 122.931L208.678 122.919C208.31 122.721 208.071 122.247 208.071 121.554Z" fill="#455A64"/>
<path d="M209.76 147.312C208.827 147.851 208.071 147.28 208.071 146.036V135.923C208.071 134.679 208.827 133.234 209.76 132.696C210.693 132.157 211.449 132.729 211.449 133.973V144.085C211.448 145.329 210.692 146.774 209.76 147.312Z" fill="#37474F"/>
<path d="M208.071 146.036V135.923C208.071 134.679 208.827 133.234 209.76 132.696C210.166 132.461 210.534 132.448 210.825 132.598L210.827 132.587L209.566 131.932L209.564 131.943C209.268 131.775 208.889 131.782 208.469 132.024C207.537 132.563 206.78 134.008 206.78 135.251V145.364C206.78 146.036 207.005 146.502 207.354 146.713L207.352 146.723L208.676 147.413L208.678 147.401C208.31 147.203 208.071 146.729 208.071 146.036Z" fill="#455A64"/>
<path d="M189.183 65.9183L100.184 14.525C98.5474 13.58 96.502 14.7609 96.502 16.6502V210.841C96.502 217.326 101.097 225.284 106.712 228.526L193.549 278.661C195.351 279.701 197.604 278.401 197.604 276.32V80.5028C197.604 75.1555 193.815 68.5923 189.183 65.9183Z" fill="#031EA9"/>
<path opacity="0.9" d="M189.183 65.9183L100.184 14.525C98.5474 13.58 96.502 14.7609 96.502 16.6502V210.841C96.502 217.326 101.097 225.284 106.712 228.526L193.549 278.661C195.351 279.701 197.604 278.401 197.604 276.32V80.5028C197.604 75.1555 193.815 68.5923 189.183 65.9183Z" fill="white"/>
<path d="M126.796 27.9419L128.174 33.7491L157.673 50.757L162.766 48.0417L126.796 27.9419Z" fill="#455A64"/>
<path d="M135.465 33.5524C135.465 34.5156 134.788 34.9055 133.955 34.4239C133.121 33.9423 132.445 32.7719 132.445 31.8087C132.445 30.8462 133.121 30.4556 133.955 30.9372C134.789 31.4188 135.465 32.5899 135.465 33.5524Z" fill="#263238"/>
<path d="M155.339 45.8359C155.182 45.8359 155.025 45.7974 154.879 45.7155L139.812 37.2966C139.357 37.0418 139.194 36.4664 139.448 36.0114C139.703 35.5557 140.279 35.3933 140.734 35.6474L155.8 44.0663C156.255 44.3211 156.418 44.8965 156.164 45.3515C155.991 45.6609 155.67 45.8359 155.339 45.8359Z" fill="#263238"/>
<path d="M115.158 54.9426C114.241 54.4134 113.576 54.8733 113.576 56.0444C113.576 57.2281 114.241 58.4685 115.158 58.9977C115.702 59.3127 116.39 59.319 116.892 58.9914L118.354 61.636C117.503 62.2149 116.205 62.1582 115.027 61.4778C112.682 60.124 110.981 57.2148 110.981 54.5828C110.981 51.9886 112.726 51.1073 115.125 52.4926C116.292 53.1667 117.568 54.5331 118.354 55.9688L116.892 57.1273C116.434 56.1452 115.746 55.2828 115.158 54.9426Z" fill="#031EA9"/>
<path d="M126.773 63.7145C126.773 66.3339 125.007 67.2411 122.574 65.8369C120.142 64.4327 118.375 61.4983 118.375 58.8663C118.375 56.2469 120.142 55.3908 122.574 56.795C125.007 58.1985 126.773 61.107 126.773 63.7145ZM120.971 60.3776C120.971 61.5865 121.734 62.9214 122.607 63.4254C123.48 63.9294 124.178 63.438 124.178 62.2291C124.178 61.0195 123.48 59.7483 122.607 59.2443C121.724 58.734 120.971 59.168 120.971 60.3776Z" fill="#031EA9"/>
<path d="M129.598 60.9373L132.618 67.2149V62.681L134.908 64.0033V72.831L132.793 71.6095L129.783 65.3634V69.8721L127.482 68.5435V59.7158L129.598 60.9373Z" fill="#031EA9"/>
<path d="M142.391 68.323V70.6274L140.21 69.3681V75.8914L137.68 74.4305V67.9072L135.509 66.6542V64.3491L142.391 68.323Z" fill="#031EA9"/>
<path d="M147.32 78.7512L144.452 77.095L144.06 78.1149L141.465 76.6161L144.693 69.6519L147.288 71.1505L150.396 81.7731L147.702 80.2177L147.32 78.7512ZM146.699 76.3019L145.914 73.2667L145.107 75.3828L146.699 76.3019Z" fill="#031EA9"/>
<path d="M154.411 77.6052C153.494 77.076 152.829 77.5359 152.829 78.707C152.829 79.8907 153.494 81.1311 154.411 81.6603C154.955 81.9753 155.643 81.9816 156.145 81.654L157.607 84.2986C156.756 84.8775 155.458 84.8208 154.28 84.1404C151.935 82.7866 150.234 79.8774 150.234 77.2454C150.234 74.6512 151.979 73.7699 154.379 75.1552C155.545 75.8293 156.821 77.1957 157.607 78.6314L156.145 79.7899C155.686 78.8078 154.999 77.9454 154.411 77.6052Z" fill="#031EA9"/>
<path d="M164.509 81.0933V83.3977L162.329 82.1384V88.6617L159.799 87.2008V80.6775L157.628 79.4245V77.1201L164.509 81.0933Z" fill="#031EA9"/>
<path d="M171.981 91.9305C172.602 92.2896 173.082 92.0124 173.082 91.1304V86.0428L175.612 87.5037V92.5913C175.612 94.9342 174.184 95.6328 171.97 94.3546C169.744 93.0701 168.273 90.6964 168.273 88.3542V83.2666L170.803 84.7275V89.8151C170.803 90.6831 171.349 91.5651 171.981 91.9305Z" fill="#031EA9"/>
<path d="M179.692 91.9618C179.408 91.7987 179.223 91.7917 179.223 92.0563C179.223 93.1644 183.181 94.7576 183.181 97.9559C183.181 99.9208 181.687 99.9264 179.964 98.9317C178.634 98.1638 177.15 96.7911 176.135 95.3113L177.074 93.6614C177.859 94.8703 179.211 96.2683 179.985 96.7149C180.356 96.9298 180.596 96.9297 180.596 96.614C180.596 95.4681 176.638 93.9379 176.638 90.8404C176.638 89.0778 177.924 88.7124 179.909 89.8576C181.119 90.5569 182.374 91.6965 183.236 92.8235L182.32 94.5112C181.546 93.5732 180.357 92.3454 179.692 91.9618Z" fill="#031EA9"/>
<path d="M102.427 98.4422C104.954 95.344 106.471 91.3897 106.471 87.0798C106.471 77.144 98.4171 69.0898 88.4813 69.0898C78.5455 69.0898 70.4913 77.144 70.4913 87.0798C70.4913 97.0156 78.5455 105.07 88.4813 105.07C91.856 105.07 95.0123 104.139 97.7115 102.522L106.472 106.326L102.427 98.4422Z" fill="#031EA9"/>
<path opacity="0.4" d="M102.427 98.4422C104.954 95.344 106.471 91.3897 106.471 87.0798C106.471 77.144 98.4171 69.0898 88.4813 69.0898C78.5455 69.0898 70.4913 77.144 70.4913 87.0798C70.4913 97.0156 78.5455 105.07 88.4813 105.07C91.856 105.07 95.0123 104.139 97.7115 102.522L106.472 106.326L102.427 98.4422Z" fill="black"/>
<path d="M81.8216 86.1236C81.8216 85.8457 81.6249 85.6959 81.2658 85.6959C80.6526 85.6959 79.8434 86.1012 79.0566 86.7368L78.0619 84.8048C79.2183 84.0068 80.4097 83.5322 81.683 83.5322C83.3595 83.5322 84.6328 84.4114 84.6328 85.7302C84.6328 86.6668 83.9496 87.5698 83.0361 88.4721L81.7873 89.7097H84.7483V91.7684H78.386L78.3741 90.0793L81.2084 87.1526C81.5437 86.8061 81.8216 86.4015 81.8216 86.1236Z" fill="white"/>
<path d="M89.9269 83.6484L87.9949 88.2866H88.7817V86.7249H91.2219V88.2866H92.1473V90.1955H91.2219V91.7684H88.7817V90.1955H85.323V88.4602L87.4055 83.6484H89.9269Z" fill="white"/>
<path d="M99.6639 87.7323V91.7692H97.0613V88.4841C97.0613 87.9521 96.7603 87.6168 96.3095 87.6168C95.8006 87.6168 95.4772 88.0221 95.4772 88.6346V91.7699H92.8739V83.1865H95.4772V86.3442C95.9049 85.6967 96.5643 85.3264 97.3973 85.3264C98.7273 85.3257 99.6639 86.2742 99.6639 87.7323Z" fill="white"/>
<path d="M184.571 152.779V239.751C184.571 244.071 179.893 246.775 176.152 244.611L129.306 217.562L121.008 212.776C119.255 211.765 117.706 210.491 116.398 209.022C113.358 205.625 111.606 201.182 111.606 196.485V109.505C111.606 105.184 116.277 102.488 120.025 104.645L175.162 136.486C180.986 139.843 184.571 146.058 184.571 152.779Z" fill="#031EA9"/>
<path opacity="0.5" d="M184.571 152.779V239.751C184.571 244.071 179.893 246.775 176.152 244.611L129.306 217.562L121.008 212.776C119.255 211.765 117.706 210.491 116.398 209.022C113.358 205.625 111.606 201.182 111.606 196.485V109.505C111.606 105.184 116.277 102.488 120.025 104.645L175.162 136.486C180.986 139.843 184.571 146.058 184.571 152.779Z" fill="white"/>
<path d="M157.59 204.239C157.59 204.239 166.362 218.785 160.022 235.189L129.306 217.561L157.59 204.239Z" fill="#263238"/>
<path d="M171.572 138.882C172.235 133.491 168.403 128.583 163.012 127.919C157.621 127.255 152.713 131.088 152.049 136.479C151.385 141.869 155.218 146.778 160.609 147.442C166 148.105 170.908 144.273 171.572 138.882Z" fill="#263238"/>
<path d="M161.855 110.094C161.855 110.094 164.874 105.172 165.801 105.551C166.728 105.931 165.198 110.581 165.198 110.581C165.198 110.581 169.765 111.529 168.911 112.668C168.057 113.807 162.485 113.544 162.485 113.544L161.855 110.094Z" fill="#263238"/>
<path d="M163.979 122.723C161.856 138.502 148.577 138.502 148.577 138.502L120.705 126.242C120.705 126.242 118.602 124.401 117.962 120.169C117.739 118.72 117.685 116.98 117.955 114.944C117.955 114.931 117.962 114.911 117.962 114.897C118.852 108.264 123.812 101.126 134.624 98.9355C136.781 98.4903 139.174 98.248 141.816 98.248C143.023 98.248 144.182 98.3019 145.294 98.423C153.726 99.2455 159.584 103.168 162.388 109.262C163.001 110.596 163.467 112.032 163.777 113.569C164.35 116.333 164.424 119.4 163.979 122.723Z" fill="#263238"/>
<path d="M97.0822 153.243C97.0822 153.243 87.1891 152.905 83.379 162.544C83.379 162.544 87.5881 165.379 93.0922 162.557C98.5956 159.734 97.0822 153.243 97.0822 153.243Z" fill="#031EA9"/>
<path opacity="0.5" d="M97.0822 153.243C97.0822 153.243 87.1891 152.905 83.379 162.544C83.379 162.544 87.5881 165.379 93.0922 162.557C98.5956 159.734 97.0822 153.243 97.0822 153.243Z" fill="black"/>
<path d="M96.7974 157.884C96.7974 157.884 94.0064 145.722 92.5259 145.571C90.9698 145.413 90.7599 149.283 90.8803 151.459L87.3557 143.93C86.8902 142.937 85.6863 142.553 84.7252 143.082C81.2196 145.008 75.0854 150.859 88.0326 165.33L96.7974 157.884Z" fill="#FBBF90"/>
<path d="M132.64 149.475L130.553 149.199C126.242 148.628 121.959 150.426 119.347 153.903L106.855 170.537L97.083 153.243C97.083 153.243 95.9028 165.006 83.3798 162.544L96.8317 185.174C100.507 191.357 109.215 191.996 113.754 186.415L125.261 172.264L132.64 149.475Z" fill="#031EA9"/>
<path d="M159.308 188.287C156.511 195.385 156.201 196.773 157.94 200.319C159.672 203.857 160.757 208.468 160.757 208.468C160.757 208.468 147.782 223.014 129.306 217.561L121.008 212.775C119.255 211.764 117.706 210.49 116.398 209.021L118.879 190.215C119.007 189.224 118.906 188.206 118.582 187.262L115.933 179.491C113.291 171.733 115.333 163.152 121.197 157.429L130.115 148.713L153.539 151.666L157.017 152.67C161.749 154.032 164.769 158.669 164.095 163.549C162.941 171.848 161.067 183.825 159.308 188.287Z" fill="#031EA9"/>
<path opacity="0.5" d="M159.308 188.287C156.511 195.385 156.201 196.773 157.94 200.319C159.672 203.857 160.757 208.468 160.757 208.468C160.757 208.468 147.782 223.014 129.306 217.561L121.008 212.775C119.255 211.764 117.706 210.49 116.398 209.021L118.879 190.215C119.007 189.224 118.906 188.206 118.582 187.262L115.933 179.491C113.291 171.733 115.333 163.152 121.197 157.429L130.115 148.713L153.539 151.666L157.017 152.67C161.749 154.032 164.769 158.669 164.095 163.549C162.941 171.848 161.067 183.825 159.308 188.287Z" fill="black"/>
<path d="M145.187 167.107L140.496 163.111C139.483 162.248 138.09 161.984 136.831 162.417L131.16 164.366L130.398 161.191C129.898 159.105 127.757 157.858 125.695 158.452L123.237 159.16L127.4 151.194C128.756 148.599 130.846 146.462 133.409 145.049L135.038 144.151L148.514 144.845C148.514 144.845 153.538 146.925 153.538 151.67L145.187 167.107Z" fill="#031EA9"/>
<path d="M148.574 150.785L135.06 161.314V127.794H148.574V150.785Z" fill="#FBBF90"/>
<path d="M135.27 148.026L131.16 164.365L148.514 150.785L135.27 148.026Z" fill="#FBBF90"/>
<path d="M135.06 145.596C140.259 143.589 145.692 139.562 148.574 132.744V127.794H135.06V145.596Z" fill="#703838"/>
<path d="M137.977 102.952C132.852 102.952 121.955 105.809 120.697 119.217C119.44 132.627 120.653 143.032 127.575 144.029C134.497 145.026 150.563 140.016 152.715 122.656C154.867 105.298 142.976 102.952 137.977 102.952Z" fill="#FBBF90"/>
<path d="M129.907 124.893V132.801L125.277 131.379L129.907 124.893Z" fill="#703838"/>
<path d="M135.06 127.872C135.95 127.872 136.671 127.151 136.671 126.261C136.671 125.371 135.95 124.649 135.06 124.649C134.17 124.649 133.449 125.371 133.449 126.261C133.449 127.151 134.17 127.872 135.06 127.872Z" fill="#263238"/>
<path d="M126.074 125.137C126.074 126.027 125.353 126.748 124.463 126.748C123.573 126.748 122.851 126.027 122.851 125.137C122.851 124.248 123.573 123.526 124.463 123.526C125.352 123.526 126.074 124.248 126.074 125.137Z" fill="#263238"/>
<path d="M122.5 121.782L125.651 119.911C125.651 119.911 124.441 118.655 123.238 119.409C122.034 120.165 122.5 121.782 122.5 121.782Z" fill="#263238"/>
<path d="M127.73 136.006C127.73 136.006 130.287 136.239 132.069 134.844C132.069 134.844 132.365 137.129 130.451 137.567C128.536 138.004 127.73 136.006 127.73 136.006Z" fill="#703838"/>
<path d="M124.983 107.512C124.983 107.512 126.91 126.03 152.086 126.608C152.086 126.608 159.692 108.208 144.659 102.229C129.625 96.2518 124.983 107.512 124.983 107.512Z" fill="#263238"/>
<path d="M159.496 123.836L159.497 123.835L159.484 123.827C159.48 123.825 159.477 123.823 159.472 123.821L156.378 122.034L156.376 122.036C155.205 121.344 153.578 121.434 151.78 122.472C148.209 124.534 145.314 129.548 145.314 133.672C145.314 135.736 146.039 137.186 147.213 137.861L150.252 139.607C150.31 139.642 150.369 139.676 150.429 139.708L150.532 139.768L150.537 139.759C151.688 140.316 153.219 140.184 154.906 139.21C158.478 137.149 161.373 132.134 161.373 128.01C161.372 125.959 160.655 124.516 159.496 123.836Z" fill="#031EA9"/>
<path d="M159.474 134.387C161.999 130.014 161.999 125.286 159.474 123.828C156.949 122.37 152.855 124.734 150.33 129.108C147.804 133.482 147.804 138.209 150.329 139.667C152.854 141.125 156.948 138.761 159.474 134.387Z" fill="#031EA9"/>
<path opacity="0.5" d="M159.474 134.387C161.999 130.014 161.999 125.286 159.474 123.828C156.949 122.37 152.855 124.734 150.33 129.108C147.804 133.482 147.804 138.209 150.329 139.667C152.854 141.125 156.948 138.761 159.474 134.387Z" fill="black"/>
<path d="M160.74 127.719L160.741 127.719L160.732 127.713C160.729 127.712 160.727 127.71 160.724 127.709L158.607 126.486L158.606 126.487C157.804 126.014 156.691 126.076 155.461 126.786C153.017 128.197 151.036 131.628 151.036 134.449C151.036 135.862 151.533 136.854 152.335 137.315L154.414 138.509C154.454 138.534 154.495 138.557 154.536 138.579L154.606 138.62L154.61 138.614C155.397 138.995 156.445 138.905 157.599 138.239C160.043 136.828 162.024 133.397 162.024 130.575C162.024 129.172 161.533 128.185 160.74 127.719Z" fill="#031EA9"/>
<path d="M162.024 130.575C162.024 133.397 160.043 136.828 157.599 138.239C155.156 139.65 153.175 138.506 153.175 135.685C153.175 132.863 155.156 129.432 157.599 128.021C160.043 126.61 162.024 127.754 162.024 130.575Z" fill="#031EA9"/>
<path opacity="0.3" d="M162.024 130.575C162.024 133.397 160.043 136.828 157.599 138.239C155.156 139.65 153.175 138.506 153.175 135.685C153.175 132.863 155.156 129.432 157.599 128.021C160.043 126.61 162.024 127.754 162.024 130.575Z" fill="black"/>
<path d="M149.885 99.3345C147.887 97.7721 145.419 96.9475 142.883 96.9104C142.68 96.9076 142.477 96.9062 142.273 96.9062C139.463 96.9062 136.919 97.1645 134.625 97.637C135.085 97.6188 135.546 97.6209 136.006 97.637H134.625V98.9356H135.924C138.708 99.0336 141.476 99.7993 143.967 101.234C149.312 104.321 152.635 110.077 152.635 116.251V121.758C152.635 122.676 153.42 123.403 154.349 123.307C154.404 123.301 154.454 123.285 154.507 123.274L155.888 122.844V122.842C155.795 122.87 155.7 122.892 155.599 122.902C156.46 122.814 157.081 122.024 157.081 121.159V116.05C157.081 106.807 153.084 101.836 149.885 99.3345Z" fill="#031EA9"/>
<path d="M141.077 143.644C140.509 143.644 139.938 143.523 139.401 143.274L135.024 141.251C134.762 141.129 134.648 140.819 134.769 140.558C134.891 140.296 135.201 140.185 135.461 140.303L139.838 142.327C140.981 142.856 142.336 142.602 143.209 141.693L147.385 137.351C147.585 137.144 147.915 137.137 148.123 137.336C148.33 137.536 148.337 137.866 148.137 138.073L143.962 142.415C143.19 143.218 142.142 143.644 141.077 143.644Z" fill="#031EA9"/>
<path opacity="0.5" d="M141.077 143.644C140.509 143.644 139.938 143.523 139.401 143.274L135.024 141.251C134.762 141.129 134.648 140.819 134.769 140.558C134.891 140.296 135.201 140.185 135.461 140.303L139.838 142.327C140.981 142.856 142.336 142.602 143.209 141.693L147.385 137.351C147.585 137.144 147.915 137.137 148.123 137.336C148.33 137.536 148.337 137.866 148.137 138.073L143.962 142.415C143.19 143.218 142.142 143.644 141.077 143.644Z" fill="black"/>
<path d="M136.176 139.767C136.176 140.896 135.262 141.811 134.132 141.811C133.003 141.811 132.089 140.896 132.089 139.767C132.089 138.638 133.003 137.723 134.132 137.723C135.262 137.723 136.176 138.638 136.176 139.767Z" fill="#031EA9"/>
<path opacity="0.5" d="M136.176 139.767C136.176 140.896 135.262 141.811 134.132 141.811C133.003 141.811 132.089 140.896 132.089 139.767C132.089 138.638 133.003 137.723 134.132 137.723C135.262 137.723 136.176 138.638 136.176 139.767Z" fill="black"/>
<path d="M157.081 116.051V121.16C157.081 122.026 156.46 122.814 155.599 122.903C154.611 123.005 153.776 122.232 153.776 121.257V116.052C153.776 109.486 150.242 103.365 144.558 100.082C141.498 98.3186 138.043 97.5017 134.624 97.6375C136.918 97.1643 139.462 96.9067 142.272 96.9067C142.477 96.9067 142.68 96.9081 142.882 96.9109C145.418 96.948 147.887 97.7726 149.885 99.335C153.084 101.835 157.081 106.807 157.081 116.051Z" fill="#031EA9"/>
<path opacity="0.5" d="M157.081 116.051V121.16C157.081 122.026 156.46 122.814 155.599 122.903C154.611 123.005 153.776 122.232 153.776 121.257V116.052C153.776 109.486 150.242 103.365 144.558 100.082C141.498 98.3186 138.043 97.5017 134.624 97.6375C136.918 97.1643 139.462 96.9067 142.272 96.9067C142.477 96.9067 142.68 96.9081 142.882 96.9109C145.418 96.948 147.887 97.7726 149.885 99.335C153.084 101.835 157.081 106.807 157.081 116.051Z" fill="black"/>
<path d="M149.214 212.355C149.214 212.355 145.825 221.699 157.937 225.874C157.937 225.874 161.892 220.069 157.937 215.316C153.981 210.564 149.214 212.355 149.214 212.355Z" fill="#031EA9"/>
<path opacity="0.7" d="M149.214 212.355C149.214 212.355 145.825 221.699 157.937 225.874C157.937 225.874 161.892 220.069 157.937 215.316C153.981 210.564 149.214 212.355 149.214 212.355Z" fill="black"/>
<path d="M153.443 212.778C153.443 212.778 141.617 217.116 141.677 218.791C141.737 220.465 146.707 219.326 146.707 219.326L144.89 220.514C142.983 221.762 141.505 223.566 140.657 225.682C140.271 226.647 140.675 227.749 141.594 228.236L146.089 230.617C147.158 231.183 148.484 230.754 149.019 229.668C149.516 228.658 150.41 227.91 151.479 227.553C153.921 226.739 158.458 224.399 160.303 218.005L153.443 212.778Z" fill="#FBBF90"/>
<path d="M157.014 152.67C157.014 152.67 150.721 156.181 154.059 166.799C157.397 177.415 163.687 193.911 163.687 193.911L149.214 212.356C149.214 212.356 154.059 212.681 156.993 217C159.928 221.32 157.937 225.875 157.937 225.875L175.898 202.802C179.274 198.464 180.233 192.717 178.447 187.519L170.722 165.032C168.809 159.465 164.404 155.112 158.815 153.266L157.014 152.67Z" fill="#031EA9"/>
<path d="M50.6715 89.9021L22.8332 73.8294C21.9932 73.3443 21.2225 73.2883 20.6135 73.5858L20.6128 73.5865C20.5379 73.6229 20.4658 73.6649 20.3958 73.7125L14.3415 77.2608C14.3534 77.2538 14.3667 77.2489 14.3786 77.2426C13.6184 77.6731 13.1354 78.6818 13.1354 80.1224V111.076C13.1354 113.695 14.7279 116.737 16.6921 117.871L44.5304 133.944C45.481 134.493 46.342 134.49 46.9797 134.048C46.9629 134.06 46.9482 134.075 46.9314 134.085L52.9444 130.557L52.9437 130.556C53.7277 130.139 54.2268 129.117 54.2268 127.65V96.6963C54.2275 94.0783 52.6357 91.0361 50.6715 89.9021Z" fill="#031EA9"/>
<path d="M53.232 92.8358C52.5852 91.566 51.678 90.4831 50.6714 89.9021L22.8331 73.8294C21.9931 73.3443 21.2224 73.2883 20.6134 73.5858L20.6127 73.5865C20.5378 73.6229 20.4657 73.6649 20.3957 73.7125L14.3414 77.2608C14.9679 76.8863 15.7904 76.9129 16.6913 77.4337L44.5296 93.5064C45.5712 94.1077 46.5057 95.248 47.156 96.5752L53.232 92.8358Z" fill="#031EA9"/>
<path d="M48.0871 131.255C48.0871 132.64 47.6419 133.628 46.9321 134.085L52.9451 130.557L52.9444 130.556C53.7284 130.139 54.2275 129.117 54.2275 127.65V96.6962C54.2275 95.4194 53.8467 94.0432 53.2314 92.835L47.1561 96.5737C47.7322 97.749 48.0864 99.0699 48.0864 100.3L48.0871 131.255Z" fill="#031EA9"/>
<path opacity="0.3" d="M53.232 92.8358C52.5852 91.566 51.678 90.4831 50.6714 89.9021L22.8331 73.8294C21.9931 73.3443 21.2224 73.2883 20.6134 73.5858L20.6127 73.5865C20.5378 73.6229 20.4657 73.6649 20.3957 73.7125L14.3414 77.2608C14.9679 76.8863 15.7904 76.9129 16.6913 77.4337L44.5296 93.5064C45.5712 94.1077 46.5057 95.248 47.156 96.5752L53.232 92.8358Z" fill="black"/>
<path opacity="0.6" d="M48.0871 131.255C48.0871 132.64 47.6419 133.628 46.9321 134.085L52.9451 130.557L52.9444 130.556C53.7284 130.139 54.2275 129.117 54.2275 127.65V96.6962C54.2275 95.4194 53.8467 94.0432 53.2314 92.835L47.1561 96.5737C47.7322 97.749 48.0864 99.0699 48.0864 100.3L48.0871 131.255Z" fill="black"/>
<path d="M39.9278 109.174C39.9278 113.182 38.3381 114.547 35.9532 113.17C34.6351 112.409 33.7048 111.2 33.2974 109.689C32.6184 110.551 31.5138 110.606 29.9815 109.722C27.4811 108.278 25.5029 104.853 25.5029 101.473C25.5029 98.115 27.4615 96.9621 29.9815 98.4174C31.2611 99.1559 32.2698 100.253 32.967 101.618V100.298L35.6039 101.82V109.074C35.6039 110.148 36.0113 110.742 36.5349 111.043C37.4267 111.559 37.9692 110.685 37.9692 108.089C37.9692 103.544 35.0607 98.731 30.7571 96.246C26.4339 93.7498 23.5443 95.4851 23.5443 100.164C23.5443 104.932 26.3758 109.946 30.6794 112.431C31.9002 113.136 33.2771 113.64 34.4979 113.651L35.1188 116.069C33.9358 116.08 32.2103 115.464 30.6794 114.58C25.0759 111.346 21.3729 104.82 21.3729 98.9102C21.3729 93.0673 25.1144 90.8623 30.7564 94.1194C36.2052 97.2652 39.9278 103.555 39.9278 109.174ZM33.0062 105.805C33.0062 103.858 31.9786 102.167 30.5828 101.362C29.1674 100.545 28.179 101.115 28.179 103.018C28.179 104.943 29.1674 106.679 30.5828 107.496C31.9786 108.301 33.0062 107.776 33.0062 105.805Z" fill="#031EA9"/>
<g opacity="0.9">
<path d="M39.9278 109.174C39.9278 113.182 38.3381 114.547 35.9532 113.17C34.6351 112.409 33.7048 111.2 33.2974 109.689C32.6184 110.551 31.5138 110.606 29.9815 109.722C27.4811 108.278 25.5029 104.853 25.5029 101.473C25.5029 98.115 27.4615 96.9621 29.9815 98.4174C31.2611 99.1559 32.2698 100.253 32.967 101.618V100.298L35.6039 101.82V109.074C35.6039 110.148 36.0113 110.742 36.5349 111.043C37.4267 111.559 37.9692 110.685 37.9692 108.089C37.9692 103.544 35.0607 98.731 30.7571 96.246C26.4339 93.7498 23.5443 95.4851 23.5443 100.164C23.5443 104.932 26.3758 109.946 30.6794 112.431C31.9002 113.136 33.2771 113.64 34.4979 113.651L35.1188 116.069C33.9358 116.08 32.2103 115.464 30.6794 114.58C25.0759 111.346 21.3729 104.82 21.3729 98.9102C21.3729 93.0673 25.1144 90.8623 30.7564 94.1194C36.2052 97.2652 39.9278 103.555 39.9278 109.174ZM33.0062 105.805C33.0062 103.858 31.9786 102.167 30.5828 101.362C29.1674 100.545 28.179 101.115 28.179 103.018C28.179 104.943 29.1674 106.679 30.5828 107.496C31.9786 108.301 33.0062 107.776 33.0062 105.805Z" fill="white"/>
</g>
<path d="M50.6715 145.045L22.8332 128.972C21.9932 128.487 21.2225 128.431 20.6135 128.728L20.6128 128.729C20.5379 128.765 20.4658 128.807 20.3958 128.855L14.3415 132.403C14.3534 132.396 14.3667 132.391 14.3786 132.385C13.6184 132.816 13.1354 133.824 13.1354 135.265V166.219C13.1354 168.838 14.7279 171.88 16.6921 173.014L44.5304 189.087C45.481 189.635 46.342 189.633 46.9797 189.191C46.9629 189.202 46.9482 189.217 46.9314 189.228L52.9444 185.699L52.9437 185.699C53.7277 185.281 54.2268 184.259 54.2268 182.793V151.839C54.2275 149.222 52.6357 146.179 50.6715 145.045Z" fill="#031EA9"/>
<path d="M53.232 147.979C52.5852 146.709 51.678 145.626 50.6714 145.045L22.8331 128.972C21.9931 128.487 21.2224 128.431 20.6134 128.729L20.6127 128.73C20.5378 128.766 20.4657 128.808 20.3957 128.856L14.3414 132.404C14.9679 132.029 15.7904 132.056 16.6913 132.577L44.5296 148.649C45.5712 149.251 46.5057 150.391 47.156 151.718L53.232 147.979Z" fill="#031EA9"/>
<path d="M48.0871 186.399C48.0871 187.783 47.6419 188.772 46.9321 189.229L52.9451 185.7L52.9444 185.699C53.7284 185.282 54.2275 184.26 54.2275 182.794V151.84C54.2275 150.563 53.8467 149.187 53.2314 147.979L47.1561 151.717C47.7322 152.893 48.0864 154.213 48.0864 155.444L48.0871 186.399Z" fill="#031EA9"/>
<path opacity="0.3" d="M53.232 147.979C52.5852 146.709 51.678 145.626 50.6714 145.045L22.8331 128.972C21.9931 128.487 21.2224 128.431 20.6134 128.729L20.6127 128.73C20.5378 128.766 20.4657 128.808 20.3957 128.856L14.3414 132.404C14.9679 132.029 15.7904 132.056 16.6913 132.577L44.5296 148.649C45.5712 149.251 46.5057 150.391 47.156 151.718L53.232 147.979Z" fill="black"/>
<path opacity="0.6" d="M48.0871 186.399C48.0871 187.783 47.6419 188.772 46.9321 189.229L52.9451 185.7L52.9444 185.699C53.7284 185.282 54.2275 184.26 54.2275 182.794V151.84C54.2275 150.563 53.8467 149.187 53.2314 147.979L47.1561 151.717C47.7322 152.893 48.0864 154.213 48.0864 155.444L48.0871 186.399Z" fill="black"/>
<path d="M27.4966 158.885L20.785 147.979V162.761L27.4966 158.885Z" fill="#031EA9"/>
<path d="M33.7372 162.027L40.4369 173.632V158.876L33.7372 162.027Z" fill="#031EA9"/>
<path d="M21.8049 147.5L28.6985 158.703C28.7251 158.733 28.7566 158.756 28.7769 158.792C28.7923 158.819 28.7944 158.849 28.8056 158.877L30.8258 162.161L32.5604 161.344C32.5898 161.318 32.6143 161.286 32.65 161.265C32.7221 161.224 32.7991 161.203 32.8768 161.195L39.8467 157.916L21.8049 147.5Z" fill="#031EA9"/>
<path d="M32.7208 162.506L30.8497 163.386C30.7734 163.423 30.6915 163.439 30.6124 163.439C30.4234 163.439 30.24 163.344 30.135 163.173L28.0833 159.839L21.3451 163.73L39.4681 174.194L32.7208 162.506Z" fill="#031EA9"/>
<g opacity="0.9">
<path d="M27.4966 158.885L20.785 147.979V162.761L27.4966 158.885Z" fill="white"/>
<path d="M33.7372 162.027L40.4369 173.632V158.876L33.7372 162.027Z" fill="white"/>
<path d="M21.8049 147.5L28.6985 158.703C28.7251 158.733 28.7566 158.756 28.7769 158.792C28.7923 158.819 28.7944 158.849 28.8056 158.877L30.8258 162.161L32.5604 161.344C32.5898 161.318 32.6143 161.286 32.65 161.265C32.7221 161.224 32.7991 161.203 32.8768 161.195L39.8467 157.916L21.8049 147.5Z" fill="white"/>
<path d="M32.7208 162.506L30.8497 163.386C30.7734 163.423 30.6915 163.439 30.6124 163.439C30.4234 163.439 30.24 163.344 30.135 163.173L28.0833 159.839L21.3451 163.73L39.4681 174.194L32.7208 162.506Z" fill="white"/>
</g>
<path d="M50.6715 34.7595L22.8332 18.6868C21.9932 18.2017 21.2225 18.1457 20.6135 18.4432L20.6128 18.4439C20.5379 18.4803 20.4658 18.5223 20.3958 18.5699L14.3415 22.1182C14.3534 22.1112 14.3667 22.1063 14.3786 22.1C13.6184 22.5305 13.1354 23.5392 13.1354 24.9798V55.9338C13.1354 58.5525 14.7279 61.5954 16.6921 62.7294L44.5304 78.8021C45.481 79.3509 46.342 79.3481 46.9797 78.9064C46.9629 78.9176 46.9482 78.933 46.9314 78.9435L52.9444 75.4148L52.9437 75.4141C53.7277 74.9969 54.2268 73.9749 54.2268 72.5084V41.5544C54.2275 38.9357 52.6357 35.8935 50.6715 34.7595Z" fill="#031EA9"/>
<path d="M53.232 37.6932C52.5852 36.4234 51.678 35.3405 50.6714 34.7588L22.8331 18.6868C21.9931 18.2017 21.2224 18.1457 20.6134 18.4432L20.6127 18.4439C20.5378 18.4803 20.4657 18.5223 20.3957 18.5699L14.3414 22.1182C14.9679 21.7437 15.7904 21.7703 16.6913 22.2911L44.5296 38.3638C45.5712 38.9651 46.5057 40.1054 47.156 41.4326L53.232 37.6932Z" fill="#031EA9"/>
<path d="M48.0871 76.1126C48.0871 77.4972 47.6419 78.4856 46.9321 78.9427L52.9451 75.414L52.9444 75.4133C53.7284 74.9961 54.2275 73.9741 54.2275 72.5076V41.5536C54.2275 40.2768 53.8467 38.9006 53.2314 37.6924L47.1561 41.4311C47.7322 42.6064 48.0864 43.9273 48.0864 45.1579L48.0871 76.1126Z" fill="#031EA9"/>
<path opacity="0.3" d="M53.232 37.6932C52.5852 36.4234 51.678 35.3405 50.6714 34.7588L22.8331 18.6868C21.9931 18.2017 21.2224 18.1457 20.6134 18.4432L20.6127 18.4439C20.5378 18.4803 20.4657 18.5223 20.3957 18.5699L14.3414 22.1182C14.9679 21.7437 15.7904 21.7703 16.6913 22.2911L44.5296 38.3638C45.5712 38.9651 46.5057 40.1054 47.156 41.4326L53.232 37.6932Z" fill="black"/>
<path opacity="0.6" d="M48.0871 76.1126C48.0871 77.4972 47.6419 78.4856 46.9321 78.9427L52.9451 75.414L52.9444 75.4133C53.7284 74.9961 54.2275 73.9741 54.2275 72.5076V41.5536C54.2275 40.2768 53.8467 38.9006 53.2314 37.6924L47.1561 41.4311C47.7322 42.6064 48.0864 43.9273 48.0864 45.1579L48.0871 76.1126Z" fill="black"/>
<path d="M38.9821 62.7594C37.9118 60.9996 36.8324 59.2461 35.7607 57.487C35.2686 56.6792 34.7149 56.2109 34.0751 56.0737C33.5557 55.9624 33.0356 55.849 32.5064 55.6901C32.3664 55.6481 32.1431 55.4675 32.0465 55.2995C30.2615 52.2076 28.8678 49.0317 27.8983 45.7774C27.8535 45.6262 27.885 45.4239 27.9564 45.3525C28.2847 45.0228 28.634 44.7211 28.9875 44.4285C29.4236 44.068 29.4992 43.4527 29.2563 42.5742C28.739 40.7045 28.2392 38.8376 27.7261 36.9686C27.3908 35.7457 26.6334 34.8623 25.7213 34.6411C24.4515 34.3331 23.307 34.373 22.2906 34.7657C21.8622 34.9316 21.6417 35.3173 21.6368 35.9788C21.8139 37.2612 21.9364 38.5268 22.1765 39.8281C23.9076 49.2165 28.0719 57.8643 34.6435 65.7589C35.1608 66.3805 35.6788 66.6745 36.2024 66.6514C37.3567 66.601 38.3458 66.2279 39.1592 65.5125C39.7829 64.9658 39.7192 63.9711 38.9821 62.7594Z" fill="#031EA9"/>
<path d="M38.8988 53.2421C38.7854 51.371 38.2317 49.4439 37.244 47.472C36.53 46.0454 35.6529 44.7609 34.6218 43.6171C34.3446 43.3091 34.1115 43.2097 33.9778 43.4456C33.8413 43.6864 33.9736 44.0042 34.2431 44.3059C34.3348 44.4088 34.4258 44.5124 34.514 44.6202C36.5433 47.0821 37.7081 49.7253 38.0021 52.5498C38.0245 52.7654 37.986 52.9789 38.0637 53.1882C38.1463 53.4108 38.3248 53.7132 38.4781 53.8224C38.623 53.9253 38.7896 53.8217 38.9093 53.8126C38.9051 53.5375 38.9079 53.3933 38.8988 53.2421Z" fill="#031EA9"/>
<path d="M32.5547 47.4957C33.4878 48.5716 33.9757 49.7196 34.0723 50.9691C34.087 51.1567 34.2431 51.4108 34.2921 51.5326C34.7177 51.8854 34.9277 51.7664 34.9284 51.3268C34.9298 50.0108 34.0177 47.936 32.9586 46.8363C32.6954 46.5626 32.4735 46.48 32.3475 46.7096C32.232 46.9224 32.3202 47.2255 32.5547 47.4957Z" fill="#031EA9"/>
<g opacity="0.9">
<path d="M38.9821 62.7594C37.9118 60.9996 36.8324 59.2461 35.7607 57.487C35.2686 56.6792 34.7149 56.2109 34.0751 56.0737C33.5557 55.9624 33.0356 55.849 32.5064 55.6901C32.3664 55.6481 32.1431 55.4675 32.0465 55.2995C30.2615 52.2076 28.8678 49.0317 27.8983 45.7774C27.8535 45.6262 27.885 45.4239 27.9564 45.3525C28.2847 45.0228 28.634 44.7211 28.9875 44.4285C29.4236 44.068 29.4992 43.4527 29.2563 42.5742C28.739 40.7045 28.2392 38.8376 27.7261 36.9686C27.3908 35.7457 26.6334 34.8623 25.7213 34.6411C24.4515 34.3331 23.307 34.373 22.2906 34.7657C21.8622 34.9316 21.6417 35.3173 21.6368 35.9788C21.8139 37.2612 21.9364 38.5268 22.1765 39.8281C23.9076 49.2165 28.0719 57.8643 34.6435 65.7589C35.1608 66.3805 35.6788 66.6745 36.2024 66.6514C37.3567 66.601 38.3458 66.2279 39.1592 65.5125C39.7829 64.9658 39.7192 63.9711 38.9821 62.7594Z" fill="white"/>
<path d="M38.8988 53.2421C38.7854 51.371 38.2317 49.4439 37.244 47.472C36.53 46.0454 35.6529 44.7609 34.6218 43.6171C34.3446 43.3091 34.1115 43.2097 33.9778 43.4456C33.8413 43.6864 33.9736 44.0042 34.2431 44.3059C34.3348 44.4088 34.4258 44.5124 34.514 44.6202C36.5433 47.0821 37.7081 49.7253 38.0021 52.5498C38.0245 52.7654 37.986 52.9789 38.0637 53.1882C38.1463 53.4108 38.3248 53.7132 38.4781 53.8224C38.623 53.9253 38.7896 53.8217 38.9093 53.8126C38.9051 53.5375 38.9079 53.3933 38.8988 53.2421Z" fill="white"/>
<path d="M32.5547 47.4957C33.4878 48.5716 33.9757 49.7196 34.0723 50.9691C34.087 51.1567 34.2431 51.4108 34.2921 51.5326C34.7177 51.8854 34.9277 51.7664 34.9284 51.3268C34.9298 50.0108 34.0177 47.936 32.9586 46.8363C32.6954 46.5626 32.4735 46.48 32.3475 46.7096C32.232 46.9224 32.3202 47.2255 32.5547 47.4957Z" fill="white"/>
</g>
<path d="M193.502 16.2198L200.063 19.9522V17.6303C200.052 17.4651 200.042 17.2992 200.042 17.1368C200.042 16.9744 200.052 16.8211 200.063 16.6678V16.6132L200.065 16.6146C200.301 13.5374 202.631 12.3579 205.475 14.0001C206.687 14.6994 207.802 15.8068 208.706 17.1025C209.347 12.9228 212.756 11.4143 216.878 13.7943C221.457 16.4375 225.168 22.8663 225.168 28.1527L225.172 33.1269C225.173 33.9277 225.598 34.669 226.289 35.0743L230.148 37.3381C231.851 38.337 232.897 40.1633 232.897 42.138C232.897 43.902 230.987 45.0045 229.459 44.1218L193.602 23.4088C191.664 22.2895 190.47 20.2217 190.47 17.9831C190.47 16.427 192.15 15.4498 193.502 16.2198Z" fill="#E6E6E6"/>
<path d="M243.503 15.2495L248.274 17.9641V16.2757C248.266 16.1553 248.258 16.0349 248.258 15.9173C248.258 15.799 248.266 15.6877 248.274 15.5764V15.5365L248.276 15.5372C248.447 13.2993 250.142 12.4418 252.21 13.636C253.091 14.1449 253.902 14.9499 254.559 15.8921C255.025 12.8527 257.505 11.7558 260.502 13.4862C263.832 15.4084 266.53 20.0837 266.53 23.9281L266.533 27.545C266.534 28.1274 266.843 28.6664 267.345 28.9611L270.152 30.6075C271.39 31.3341 272.151 32.662 272.151 34.0977C272.151 35.3808 270.762 36.1823 269.651 35.5404L243.575 20.4771C242.166 19.663 241.298 18.1594 241.298 16.5319C241.298 15.4007 242.52 14.6902 243.503 15.2495Z" fill="#E6E6E6"/>
</svg>
