<svg width="236" height="85" viewBox="0 0 236 85" fill="none" xmlns="http://www.w3.org/2000/svg">
<rect x="0.184814" y="0.869507" width="235.109" height="83.2174" rx="7.5" fill="#F1F3FF" fill-opacity="0.2"/>
<g clip-path="url(#clip0_136_1202)">
<path d="M219.641 9.86951H15.837C11.3347 9.86951 7.68481 13.5194 7.68481 18.0217V66.9347C7.68481 71.437 11.3347 75.0869 15.837 75.0869H219.641C224.144 75.0869 227.794 71.437 227.794 66.9347V18.0217C227.794 13.5194 224.144 9.86951 219.641 9.86951Z" fill="white"/>
<path d="M85.0001 26.5651C85.0268 27.163 84.9323 27.7602 84.7221 28.3206C84.512 28.881 84.1906 29.3931 83.7772 29.8259C83.3141 30.3041 82.7551 30.6791 82.137 30.9264C81.5189 31.1736 80.8555 31.2876 80.1903 31.2607C79.5212 31.2756 78.8563 31.1531 78.2365 30.9007C77.6167 30.6483 77.0553 30.2714 76.587 29.7933C75.637 28.8215 75.105 27.5165 75.105 26.1575C75.105 24.7984 75.637 23.4934 76.587 22.5216C77.3134 21.8118 78.2333 21.3326 79.2312 21.144C80.2291 20.9555 81.2605 21.066 82.1957 21.4618C82.7837 21.7035 83.3081 22.0773 83.7283 22.5542L82.8642 23.4183C82.5404 23.0283 82.1302 22.7191 81.666 22.5153C81.2018 22.3116 80.6966 22.2188 80.1903 22.2444C79.5512 22.2488 78.9229 22.4097 78.3604 22.713C77.7978 23.0163 77.3181 23.4528 76.9632 23.9843C76.6082 24.5158 76.3889 25.1262 76.3243 25.762C76.2598 26.3978 76.3519 27.0398 76.5927 27.6318C76.8335 28.2238 77.2157 28.7478 77.7058 29.158C78.1959 29.5682 78.779 29.8522 79.4041 29.985C80.0293 30.1178 80.6775 30.0955 81.292 29.92C81.9065 29.7444 82.4687 29.4211 82.9294 28.9781C83.4274 28.4321 83.7162 27.7275 83.7446 26.989H80.1903V25.8151H84.9349C84.972 26.0635 84.9938 26.314 85.0001 26.5651Z" fill="black" stroke="black" stroke-width="0.308478" stroke-miterlimit="10"/>
<path d="M92.4674 22.489H88.0652V25.5868H92.0761V26.7607H88.0652V29.8586H92.4674V31.0651H86.7935V21.2825H92.4674V22.489Z" fill="black" stroke="black" stroke-width="0.308478" stroke-miterlimit="10"/>
<path d="M97.8153 31.0651H96.5599V22.489H93.8207V21.2825H100.62V22.489H97.8153V31.0651Z" fill="black" stroke="black" stroke-width="0.308478" stroke-miterlimit="10"/>
<path d="M105.413 31.0651V21.2825H106.669V31.0651H105.413Z" fill="black" stroke="black" stroke-width="0.308478" stroke-miterlimit="10"/>
<path d="M112.245 31.0651H110.989V22.489H108.25V21.2825H114.967V22.489H112.245V31.0651Z" fill="black" stroke="black" stroke-width="0.308478" stroke-miterlimit="10"/>
<path d="M127.701 29.7934C127.23 30.2647 126.671 30.6386 126.056 30.8937C125.44 31.1488 124.78 31.2801 124.114 31.2801C123.448 31.2801 122.788 31.1488 122.173 30.8937C121.557 30.6386 120.998 30.2647 120.527 29.7934C119.605 28.8136 119.092 27.5191 119.092 26.1739C119.092 24.8287 119.605 23.5341 120.527 22.5543C120.988 22.0697 121.545 21.6873 122.163 21.4317C122.781 21.1761 123.446 21.0531 124.114 21.0706C124.782 21.06 125.444 21.1862 126.061 21.4414C126.678 21.6966 127.236 22.0753 127.701 22.5543C128.17 23.0312 128.538 23.5972 128.785 24.2189C129.031 24.8405 129.151 25.5053 129.136 26.1739C129.157 26.8433 129.041 27.5099 128.794 28.1326C128.547 28.7552 128.175 29.3205 127.701 29.7934ZM121.457 28.9782C121.804 29.3302 122.218 29.6097 122.674 29.8004C123.13 29.9912 123.62 30.0894 124.114 30.0894C124.609 30.0894 125.098 29.9912 125.554 29.8004C126.011 29.6097 126.424 29.3302 126.772 28.9782C127.475 28.2137 127.866 27.2128 127.866 26.1739C127.866 25.1349 127.475 24.134 126.772 23.3695C126.424 23.0175 126.011 22.7381 125.554 22.5473C125.098 22.3566 124.609 22.2583 124.114 22.2583C123.62 22.2583 123.13 22.3566 122.674 22.5473C122.218 22.7381 121.804 23.0175 121.457 23.3695C120.753 24.134 120.363 25.1349 120.363 26.1739C120.363 27.2128 120.753 28.2137 121.457 28.9782Z" fill="black" stroke="black" stroke-width="0.308478" stroke-miterlimit="10"/>
<path d="M130.913 31.0651V21.2825H132.429L137.19 28.8966V27.0053V21.2825H138.446V31.0651H137.141L132.169 23.0923V24.9673V31.0651H130.913Z" fill="black" stroke="black" stroke-width="0.308478" stroke-miterlimit="10"/>
<path d="M118.783 45.3315C117.409 45.3347 116.067 45.7452 114.927 46.5111C113.786 47.277 112.898 48.3638 112.376 49.6342C111.853 50.9046 111.719 52.3014 111.99 53.6481C112.261 54.9948 112.925 56.2309 113.899 57.1999C114.873 58.169 116.112 58.8276 117.46 59.0925C118.808 59.3573 120.204 59.2165 121.472 58.6878C122.74 58.1591 123.823 57.2663 124.583 56.1224C125.344 54.9784 125.748 53.6345 125.745 52.2608C125.758 51.3444 125.587 50.4347 125.241 49.5858C124.895 48.737 124.383 47.9663 123.733 47.3198C123.083 46.6733 122.31 46.164 121.46 45.8224C120.609 45.4809 119.699 45.3139 118.783 45.3315V45.3315ZM118.783 56.4673C117.941 56.5262 117.1 56.3305 116.371 55.9055C115.642 55.4805 115.057 54.846 114.693 54.0844C114.33 53.3228 114.203 52.4693 114.331 51.635C114.459 50.8006 114.834 50.024 115.409 49.406C115.984 48.788 116.732 48.3572 117.555 48.1697C118.377 47.9822 119.238 48.0465 120.024 48.3544C120.81 48.6623 121.485 49.1995 121.961 49.8962C122.438 50.5929 122.694 51.4168 122.696 52.2608C122.722 52.7956 122.641 53.3303 122.457 53.8332C122.273 54.3362 121.991 54.7973 121.626 55.1894C121.262 55.5814 120.822 55.8965 120.334 56.116C119.845 56.3355 119.318 56.4549 118.783 56.4673ZM103.587 45.3315C102.213 45.3347 100.871 45.7452 99.7309 46.5111C98.5905 47.277 97.7028 48.3638 97.1801 49.6342C96.6574 50.9046 96.5231 52.3014 96.7943 53.6481C97.0654 54.9948 97.7298 56.2309 98.7035 57.1999C99.6771 58.169 100.916 58.8276 102.264 59.0925C103.612 59.3573 105.008 59.2165 106.276 58.6878C107.544 58.1591 108.627 57.2663 109.387 56.1224C110.148 54.9784 110.552 53.6345 110.549 52.2608C110.562 51.3444 110.391 50.4347 110.045 49.5858C109.7 48.737 109.187 47.9663 108.537 47.3198C107.888 46.6733 107.115 46.164 106.264 45.8224C105.414 45.4809 104.503 45.3139 103.587 45.3315V45.3315ZM103.587 56.4673C102.745 56.5262 101.905 56.3305 101.175 55.9055C100.446 55.4805 99.8617 54.846 99.4978 54.0844C99.134 53.3228 99.0077 52.4693 99.1353 51.635C99.263 50.8006 99.6386 50.024 100.214 49.406C100.788 48.788 101.536 48.3572 102.359 48.1697C103.182 47.9822 104.042 48.0465 104.828 48.3544C105.614 48.6623 106.289 49.1995 106.765 49.8962C107.242 50.5929 107.498 51.4168 107.5 52.2608C107.526 52.7956 107.445 53.3303 107.261 53.8332C107.078 54.3362 106.795 54.7973 106.431 55.1894C106.066 55.5814 105.626 55.8965 105.138 56.116C104.65 56.3355 104.122 56.4549 103.587 56.4673ZM85.5217 47.4673V50.4021H92.5652C92.4548 51.7844 91.8802 53.0888 90.9348 54.1032C90.2282 54.8231 89.3784 55.3866 88.4404 55.7573C87.5023 56.1281 86.4969 56.2977 85.4891 56.2554C83.4135 56.2554 81.4229 55.4309 79.9552 53.9632C78.4876 52.4955 77.663 50.5049 77.663 48.4293C77.663 46.3537 78.4876 44.3631 79.9552 42.8954C81.4229 41.4277 83.4135 40.6032 85.4891 40.6032C87.479 40.5736 89.4004 41.3293 90.8369 42.7065L92.9076 40.6358C91.9358 39.6747 90.782 38.9172 89.5138 38.4076C88.2455 37.8981 86.8883 37.6468 85.5217 37.6684C84.0723 37.612 82.6263 37.8488 81.2706 38.3646C79.9148 38.8804 78.6771 39.6645 77.6316 40.6701C76.5862 41.6756 75.7545 42.8819 75.1864 44.2166C74.6183 45.5513 74.3254 46.9869 74.3254 48.4375C74.3254 49.888 74.6183 51.3236 75.1864 52.6583C75.7545 53.993 76.5862 55.1993 77.6316 56.2048C78.6771 57.2104 79.9148 57.9946 81.2706 58.5103C82.6263 59.0261 84.0723 59.2629 85.5217 59.2065C86.9164 59.2622 88.3071 59.0222 89.6025 58.5024C90.8979 57.9825 92.0687 57.1946 93.038 56.1902C94.7502 54.3093 95.6625 51.8356 95.5815 49.2934C95.5873 48.6816 95.5382 48.0704 95.4348 47.4673H85.5217ZM159.397 49.75C158.972 48.499 158.176 47.4067 157.117 46.6176C156.057 45.8286 154.782 45.3801 153.462 45.3315C152.57 45.3297 151.687 45.5109 150.868 45.8639C150.049 46.2168 149.311 46.734 148.7 47.3834C148.089 48.0329 147.617 48.8008 147.315 49.6397C147.012 50.4786 146.884 51.3707 146.94 52.2608C146.926 53.7492 147.394 55.2021 148.274 56.4026C149.154 57.603 150.399 58.4866 151.822 58.9214C153.246 59.3561 154.772 59.3187 156.172 58.8147C157.573 58.3107 158.772 57.3671 159.592 56.125L157.228 54.4945C156.876 55.0819 156.376 55.567 155.778 55.9016C155.18 56.2362 154.506 56.4088 153.821 56.4021C153.114 56.4313 152.415 56.246 151.816 55.8707C151.216 55.4953 150.744 54.9474 150.462 54.2989L159.739 50.4673L159.397 49.75ZM149.94 52.0652C149.907 51.5587 149.975 51.0508 150.141 50.5711C150.307 50.0914 150.567 49.6495 150.905 49.2715C151.244 48.8934 151.654 48.5867 152.113 48.3693C152.572 48.1519 153.069 48.0282 153.576 48.0054C154.101 47.9733 154.625 48.097 155.08 48.3609C155.535 48.6249 155.903 49.0173 156.136 49.4891L149.94 52.0652ZM142.408 58.7826H145.457V38.4021H142.408V58.7826ZM137.418 46.8804H137.304C136.849 46.3617 136.287 45.9475 135.656 45.6661C135.026 45.3847 134.342 45.2427 133.652 45.25C131.87 45.3364 130.19 46.105 128.96 47.3966C127.729 48.6881 127.043 50.4036 127.043 52.1875C127.043 53.9713 127.729 55.6868 128.96 56.9784C130.19 58.2699 131.87 59.0385 133.652 59.125C134.343 59.1388 135.029 58.9999 135.661 58.718C136.292 58.4362 136.853 58.0184 137.304 57.4945H137.418V58.4891C137.418 61.1467 136 62.5652 133.717 62.5652C132.955 62.5484 132.215 62.3054 131.59 61.8671C130.966 61.4287 130.486 60.8148 130.212 60.1032L127.571 61.1956C128.059 62.4221 128.908 63.4715 130.006 64.2051C131.103 64.9388 132.397 65.322 133.717 65.3043C137.288 65.3043 140.239 63.201 140.239 58.0815V45.7391H137.418V46.8804ZM133.913 56.4673C132.845 56.4007 131.842 55.9294 131.109 55.1494C130.376 54.3694 129.968 53.3393 129.968 52.269C129.968 51.1987 130.376 50.1686 131.109 49.3885C131.842 48.6085 132.845 48.1372 133.913 48.0706C134.435 48.0931 134.947 48.2205 135.419 48.445C135.891 48.6696 136.313 48.9867 136.66 49.3777C137.007 49.7686 137.271 50.2253 137.438 50.7206C137.605 51.216 137.67 51.7397 137.63 52.2608C137.675 52.7837 137.613 53.3101 137.448 53.8084C137.283 54.3066 137.019 54.7662 136.672 55.1594C136.324 55.5526 135.901 55.8713 135.426 56.0961C134.952 56.3209 134.437 56.4472 133.913 56.4673V56.4673ZM173.679 38.4021H166.375V58.7826H169.424V51.0543H173.679C174.548 51.1167 175.421 50.9995 176.242 50.7098C177.064 50.4202 177.817 49.9644 178.455 49.3709C179.093 48.7773 179.601 48.0588 179.949 47.26C180.297 46.4612 180.476 45.5994 180.476 44.7282C180.476 43.857 180.297 42.9952 179.949 42.1964C179.601 41.3977 179.093 40.6791 178.455 40.0856C177.817 39.492 177.064 39.0362 176.242 38.7466C175.421 38.457 174.548 38.3397 173.679 38.4021V38.4021ZM173.679 48.1847H169.424V41.2391H173.745C174.203 41.2391 174.656 41.3293 175.08 41.5047C175.503 41.68 175.888 41.937 176.212 42.261C176.536 42.585 176.793 42.9697 176.968 43.393C177.143 43.8163 177.234 44.27 177.234 44.7282C177.234 45.1864 177.143 45.6401 176.968 46.0634C176.793 46.4868 176.536 46.8714 176.212 47.1954C175.888 47.5194 175.503 47.7764 175.08 47.9517C174.656 48.1271 174.203 48.2173 173.745 48.2173L173.679 48.1847ZM192.495 45.2663C191.384 45.1978 190.278 45.4563 189.313 46.0098C188.348 46.5632 187.567 47.3874 187.065 48.3804L189.755 49.5054C190.027 49.0153 190.435 48.6144 190.93 48.3511C191.425 48.0878 191.985 47.9734 192.543 48.0217C192.93 47.9765 193.323 48.0088 193.697 48.1168C194.072 48.2248 194.421 48.4062 194.724 48.6506C195.028 48.8949 195.28 49.1973 195.465 49.54C195.65 49.8827 195.766 50.2589 195.804 50.6467V50.8423C194.824 50.327 193.733 50.0584 192.625 50.0597C189.723 50.0597 186.755 51.6902 186.755 54.6576C186.784 55.2883 186.939 55.9068 187.212 56.4764C187.484 57.046 187.868 57.555 188.341 57.9732C188.814 58.3915 189.366 58.7104 189.965 58.911C190.564 59.1117 191.197 59.19 191.826 59.1413C192.591 59.1836 193.354 59.0217 194.036 58.6721C194.718 58.3226 195.294 57.798 195.707 57.1521H195.804V58.7826H198.739V50.9402C198.739 47.3695 196.033 45.2989 192.56 45.2989L192.495 45.2663ZM192.12 56.4347C191.125 56.4347 189.739 55.9293 189.739 54.7065C189.739 53.076 191.467 52.5217 193 52.5217C193.969 52.4978 194.926 52.7343 195.772 53.2065C195.669 54.0919 195.25 54.9102 194.59 55.5098C193.93 56.1094 193.076 56.4496 192.185 56.4673L192.12 56.4347ZM209.435 45.7391L205.946 54.576H205.848L202.228 45.7391H198.967L204.397 58.0978L201.299 64.9619H204.478L212.826 45.7391H209.435ZM182.043 58.7826H185.076V38.4021H182.043V58.7826Z" fill="black"/>
<path d="M24.7065 22.163C24.1693 22.7982 23.8951 23.6148 23.9402 24.4456V60.5108C23.8848 61.3429 24.1602 62.1633 24.7065 62.7934L24.8207 62.9238L45.0218 42.7227V42.2336L24.8207 22.0488L24.7065 22.163Z" fill="url(#paint0_linear_136_1202)"/>
<path d="M51.7065 49.4564L45.0217 42.7227V42.2336L51.7065 35.4999L51.8532 35.5977L59.8587 40.1303C62.1413 41.4184 62.1413 43.5379 59.8587 44.8423L51.8859 49.3749L51.7065 49.4564Z" fill="url(#paint1_linear_136_1202)"/>
<path d="M51.9021 49.3586L45.0216 42.4781L24.7064 62.7934C25.1671 63.2035 25.7569 63.4394 26.3733 63.4602C26.9897 63.4811 27.594 63.2855 28.0814 62.9075L51.9021 49.3586" fill="url(#paint2_linear_136_1202)"/>
<path d="M51.9021 35.5977L28.0814 22.0651C27.5972 21.6818 26.9934 21.4815 26.3761 21.4994C25.7588 21.5173 25.1676 21.7522 24.7064 22.1629L45.0216 42.4781L51.9021 35.5977Z" fill="url(#paint3_linear_136_1202)"/>
<path opacity="0.2" d="M51.7064 49.2119L28.0814 62.663C27.6118 63.0175 27.0394 63.2092 26.451 63.2092C25.8626 63.2092 25.2902 63.0175 24.8206 62.663V62.663L24.7064 62.7771L24.8206 62.9076C25.2902 63.262 25.8626 63.4538 26.451 63.4538C27.0394 63.4538 27.6118 63.262 28.0814 62.9076L51.9021 49.3587L51.7064 49.2119Z" fill="black"/>
<path opacity="0.12" d="M24.7066 62.5651C24.1829 61.9185 23.9262 61.096 23.9892 60.2662V60.5108C23.9337 61.3429 24.2091 62.1633 24.7555 62.7934L24.8696 62.6793L24.7066 62.5651Z" fill="black"/>
<path opacity="0.12" d="M59.8588 44.5977L51.7066 49.2118L51.8533 49.3586L59.8588 44.826C60.3313 44.6262 60.7413 44.3026 61.0454 43.8895C61.3495 43.4763 61.5367 42.9887 61.587 42.4781C61.4851 42.9421 61.2756 43.3757 60.9754 43.7438C60.6752 44.112 60.2927 44.4045 59.8588 44.5977Z" fill="black"/>
<path opacity="0.25" d="M28.0815 22.2934L59.8587 40.3586C60.2926 40.5519 60.6751 40.8444 60.9753 41.2125C61.2755 41.5807 61.485 42.0142 61.5869 42.4782C61.5366 41.9676 61.3494 41.4801 61.0453 41.0669C60.7411 40.6537 60.3312 40.3302 59.8587 40.1304L28.0815 22.0651C25.8152 20.7608 23.9402 21.8369 23.9402 24.4456V24.6901C23.9891 22.0814 25.8152 21.0054 28.0815 22.2934Z" fill="white"/>
</g>
<defs>
<linearGradient id="paint0_linear_136_1202" x1="43.2283" y1="24.0706" x2="15.8696" y2="51.4293" gradientUnits="userSpaceOnUse">
<stop stop-color="#00A0FF"/>
<stop offset="0.01" stop-color="#00A1FF"/>
<stop offset="0.26" stop-color="#00BEFF"/>
<stop offset="0.51" stop-color="#00D2FF"/>
<stop offset="0.76" stop-color="#00DFFF"/>
<stop offset="1" stop-color="#00E3FF"/>
</linearGradient>
<linearGradient id="paint1_linear_136_1202" x1="62.8424" y1="42.4781" x2="23.4022" y2="42.4781" gradientUnits="userSpaceOnUse">
<stop stop-color="#FFE000"/>
<stop offset="0.41" stop-color="#FFBD00"/>
<stop offset="0.78" stop-color="#FFA500"/>
<stop offset="1" stop-color="#FF9C00"/>
</linearGradient>
<linearGradient id="paint2_linear_136_1202" x1="48.1684" y1="46.2282" x2="11.0597" y2="83.3205" gradientUnits="userSpaceOnUse">
<stop stop-color="#FF3A44"/>
<stop offset="1" stop-color="#C31162"/>
</linearGradient>
<linearGradient id="paint3_linear_136_1202" x1="19.5869" y1="10.1629" x2="36.1521" y2="26.7281" gradientUnits="userSpaceOnUse">
<stop stop-color="#32A071"/>
<stop offset="0.07" stop-color="#2DA771"/>
<stop offset="0.48" stop-color="#15CF74"/>
<stop offset="0.8" stop-color="#06E775"/>
<stop offset="1" stop-color="#00F076"/>
</linearGradient>
<clipPath id="clip0_136_1202">
<rect width="220.109" height="65.2174" fill="white" transform="translate(7.68481 9.86951)"/>
</clipPath>
</defs>
</svg>
