<svg width="127" height="127" viewBox="0 0 127 127" fill="none" xmlns="http://www.w3.org/2000/svg">
<path d="M91.2812 43.6562H78.0435L89.0707 31.0515C90.4954 29.4243 91.2812 27.3348 91.2812 25.1718V24.8047C91.2812 19.8815 87.2748 15.875 82.3516 15.875C77.4283 15.875 73.4219 19.8815 73.4219 24.8047V27.7812H77.3906V24.8047C77.3906 22.0682 79.6151 19.8438 82.3516 19.8438C85.088 19.8438 87.3125 22.0682 87.3125 24.8047V25.1718C87.3125 26.3743 86.8759 27.5332 86.0842 28.4381L73.4219 42.9101V47.625H91.2812V43.6562Z" fill="#031EA9"/>
<path d="M107.156 47.625H111.125V41.6719H115.094V37.7031H111.125V15.875H105.93L95.25 37.2348V41.6719H107.156V47.625ZM99.4529 37.7031L107.156 22.2964V37.7031H99.4529Z" fill="#031EA9"/>
<path d="M100.022 64.7442C114.292 61.6367 125.016 48.9208 125.016 33.7344C125.016 16.2282 110.772 1.98438 93.2656 1.98438C78.0792 1.98438 65.3633 12.7079 62.2558 26.9776C58.7534 26.2076 55.1795 25.7969 51.5938 25.7969C24.2391 25.7969 1.98438 48.0516 1.98438 75.4062C1.98438 102.761 24.2391 125.016 51.5938 125.016C78.9484 125.016 101.203 102.761 101.203 75.4062C101.203 71.8205 100.792 68.2466 100.022 64.7442ZM93.2656 5.95312C108.585 5.95312 121.047 18.415 121.047 33.7344C121.047 49.0537 108.585 61.5156 93.2656 61.5156C77.9463 61.5156 65.4844 49.0537 65.4844 33.7344C65.4844 18.415 77.9463 5.95312 93.2656 5.95312ZM89.2195 73.4219H85.3281V77.3906H89.1957C88.7293 86.2886 85.1793 94.363 79.5774 100.584L76.8489 97.8555L74.043 100.661L76.7715 103.39C70.5505 108.994 62.4761 112.542 53.5781 113.008V109.141H49.6094V113.008C40.7114 112.542 32.637 108.992 26.416 103.39L29.1445 100.661L26.3386 97.8555L23.6101 100.584C18.0062 94.363 14.4582 86.2886 13.9918 77.3906H17.8594V73.4219H13.9918C14.4582 64.5239 18.0082 56.4495 23.6101 50.2285L26.3386 52.957L29.1445 50.1511L26.416 47.4226C32.637 41.8187 40.7114 38.2707 49.6094 37.8043V41.6719H53.5781V37.7805C56.4317 37.9313 59.2574 38.4115 62.0216 39.2093C64.3156 52.328 74.67 62.6824 87.7907 64.9784C88.5865 67.7426 89.0667 70.5683 89.2195 73.4219ZM51.5938 121.047C26.4259 121.047 5.95312 100.574 5.95312 75.4062C5.95312 50.2384 26.4259 29.7656 51.5938 29.7656C54.9791 29.7656 58.3545 30.1645 61.6585 30.9106C61.5752 31.8433 61.5156 32.7819 61.5156 33.7344C61.5156 34.1491 61.5613 34.5539 61.5771 34.9667C58.3029 34.1551 54.9573 33.7344 51.5938 33.7344C28.6167 33.7344 9.92188 52.4292 9.92188 75.4062C9.92188 98.3833 28.6167 117.078 51.5938 117.078C74.5708 117.078 93.2656 98.3833 93.2656 75.4062C93.2656 72.0427 92.8449 68.6971 92.0333 65.4229C92.4461 65.4387 92.8509 65.4844 93.2656 65.4844C94.2181 65.4844 95.1567 65.4248 96.0894 65.3415C96.8355 68.6455 97.2344 72.0209 97.2344 75.4062C97.2344 100.574 76.7616 121.047 51.5938 121.047Z" fill="#020F4F"/>
<path d="M57.5469 75.4063C57.5469 72.8226 55.882 70.6398 53.5781 69.8182V45.6406H49.6094V69.8182C47.3055 70.6398 45.6406 72.8226 45.6406 75.4063C45.6406 78.6884 48.3116 81.3594 51.5938 81.3594C52.5105 81.3594 53.3678 81.1351 54.1437 80.7621L68.0502 94.6686L70.8561 91.8627L56.9496 77.9562C57.3226 77.1803 57.5469 76.323 57.5469 75.4063ZM49.6094 75.4063C49.6094 74.3109 50.4984 73.4219 51.5938 73.4219C52.6891 73.4219 53.5781 74.3109 53.5781 75.4063C53.5781 76.5016 52.6891 77.3906 51.5938 77.3906C50.4984 77.3906 49.6094 76.5016 49.6094 75.4063Z" fill="#020F4F"/>
<path d="M111.125 69.4531C107.843 69.4531 105.172 72.1241 105.172 75.4062C105.172 77.8887 106.702 80.0179 108.867 80.9089C107.623 93.974 101.923 106.271 92.6902 115.689L95.5239 118.467C105.444 108.351 111.546 95.125 112.838 81.0776C115.282 80.3374 117.078 78.0911 117.078 75.4062C117.078 72.1241 114.407 69.4531 111.125 69.4531ZM111.125 77.3906C110.03 77.3906 109.141 76.5016 109.141 75.4062C109.141 74.3109 110.03 73.4219 111.125 73.4219C112.22 73.4219 113.109 74.3109 113.109 75.4062C113.109 76.5016 112.22 77.3906 111.125 77.3906Z" fill="#031EA9"/>
<path d="M12.4678 33.2045C21.711 24.6301 33.6034 19.3576 46.101 18.165C47.0019 20.314 49.1232 21.8281 51.5937 21.8281C54.8759 21.8281 57.5469 19.1572 57.5469 15.875C57.5469 12.5928 54.8759 9.92188 51.5937 9.92188C48.9109 9.92188 46.6626 11.7177 45.9224 14.1625C32.4862 15.4007 19.7009 21.086 9.77106 30.2955L12.4678 33.2045ZM51.5937 13.8906C52.6891 13.8906 53.5781 14.7796 53.5781 15.875C53.5781 16.9704 52.6891 17.8594 51.5937 17.8594C50.4984 17.8594 49.6094 16.9704 49.6094 15.875C49.6094 14.7796 50.4984 13.8906 51.5937 13.8906Z" fill="#031EA9"/>
</svg>
