<svg width="138" height="70" viewBox="0 0 138 70" fill="none" xmlns="http://www.w3.org/2000/svg">
<g clip-path="url(#clip0_111_8703)">
<path fill-rule="evenodd" clip-rule="evenodd" d="M12.5743 0.759766C5.87794 0.759766 0.449463 6.18825 0.449463 12.8846V57.504C0.449463 64.2003 5.87794 69.6288 12.5743 69.6288H57.1937C63.89 69.6288 69.3185 64.2003 69.3185 57.504V52.1691H64.8748V48.2406C64.0018 49.5016 62.7893 50.5523 61.2373 51.3931C59.7176 52.2013 57.9556 52.6056 55.9509 52.6056C53.6877 52.6056 51.6182 52.0236 49.743 50.8596C47.9 49.6956 46.4288 48.0629 45.3295 45.9612C44.2625 43.8272 43.7291 41.386 43.7291 38.6378C43.7291 35.9218 44.2625 33.5131 45.3295 31.4114C46.4288 29.3096 47.9 27.6932 49.743 26.5614C51.6182 25.4297 53.7037 24.864 55.9994 24.864C58.0041 24.864 59.7501 25.2682 61.2373 26.0764C62.757 26.8847 63.9695 27.9032 64.8748 29.1319V25.3004H69.3185V12.8846C69.3185 6.18825 63.89 0.759766 57.1937 0.759766H12.5743ZM21.2072 51.2961C23.1148 52.1043 25.2489 52.5086 27.6091 52.5086C30.0988 52.5086 32.2488 52.0558 34.0595 51.1506C35.8702 50.2128 37.2442 48.9681 38.1819 47.4161C39.1197 45.8642 39.5884 44.1829 39.5884 42.3722C39.5884 40.2705 39.0872 38.573 38.0849 37.2798C37.0827 35.9865 35.8862 35.0166 34.496 34.3698C33.1058 33.7231 31.3113 33.0766 29.1126 32.4298C27.4958 31.9449 26.2349 31.5246 25.3296 31.1689C24.4566 30.7809 23.713 30.2959 23.0987 29.7139C22.5167 29.0996 22.2257 28.3397 22.2257 27.4344C22.2257 26.1412 22.6137 25.1549 23.3897 24.476C24.198 23.797 25.2649 23.4575 26.5906 23.4575C28.1103 23.4575 29.3228 23.8455 30.2281 24.6215C31.1658 25.3652 31.6668 26.3189 31.7315 27.4829H39.2004C38.9742 24.4437 37.7617 22.0833 35.563 20.402C33.3968 18.6884 30.5676 17.8316 27.0756 17.8316C24.7476 17.8316 22.6783 18.2357 20.8677 19.044C19.057 19.82 17.6506 20.9517 16.6482 22.439C15.6459 23.9262 15.1448 25.6722 15.1448 27.6769C15.1448 29.8109 15.6298 31.5246 16.5997 32.8178C17.6021 34.0788 18.7822 35.0326 20.1402 35.6793C21.5305 36.2935 23.325 36.924 25.5236 37.5708C27.1403 38.0235 28.4013 38.4438 29.3066 38.8318C30.2443 39.1875 31.0203 39.6885 31.6345 40.3352C32.2488 40.982 32.556 41.8065 32.556 42.8087C32.556 44.0374 32.1033 45.0397 31.198 45.8157C30.2928 46.5594 29.0478 46.9311 27.4636 46.9311C25.9116 46.9311 24.683 46.5269 23.7776 45.7187C22.9047 44.9104 22.4197 43.8109 22.3227 42.4207H15.0478C15.0801 44.4899 15.6459 46.2844 16.7452 47.8041C17.8446 49.3239 19.3319 50.4878 21.2072 51.2961ZM63.9048 34.5153C64.5515 35.6793 64.8748 37.0858 64.8748 38.7348C64.8748 40.3837 64.5515 41.8065 63.9048 43.0027C63.258 44.1667 62.385 45.0719 61.2858 45.7187C60.1866 46.3329 59.0063 46.6401 57.7454 46.6401C56.5166 46.6401 55.3526 46.3169 54.2534 45.6702C53.1864 45.0234 52.3134 44.1019 51.6344 42.9057C50.9877 41.677 50.6645 40.2545 50.6645 38.6378C50.6645 37.021 50.9877 35.6308 51.6344 34.4668C52.3134 33.2706 53.1864 32.3651 54.2534 31.7509C55.3204 31.1366 56.4844 30.8294 57.7454 30.8294C59.0063 30.8294 60.1866 31.1526 61.2858 31.7994C62.385 32.4136 63.258 33.3191 63.9048 34.5153Z" fill="#3ECF67"/>
<path d="M93.4765 24.9127C95.5135 24.9127 97.3242 25.3654 98.9084 26.2707C100.493 27.1436 101.722 28.4531 102.595 30.1991C103.5 31.9128 103.953 33.9821 103.953 36.407V52.1693H97.1624V37.3285C97.1624 35.1945 96.6289 33.5618 95.562 32.4301C94.495 31.2661 93.04 30.6841 91.197 30.6841C89.3218 30.6841 87.8343 31.2661 86.7351 32.4301C85.6681 33.5618 85.1346 35.1945 85.1346 37.3285V52.1693H78.3447V16.2798H85.1346V28.6471C86.0076 27.4831 87.1716 26.5779 88.6266 25.9312C90.0815 25.2522 91.6983 24.9127 93.4765 24.9127ZM108.664 38.638C108.664 35.922 109.197 33.5133 110.264 31.4116C111.364 29.3099 112.835 27.6934 114.678 26.5617C116.553 25.4299 118.638 24.8642 120.934 24.8642C122.939 24.8642 124.685 25.2684 126.172 26.0767C127.692 26.8849 128.904 27.9034 129.809 29.1321V25.3007H136.648V52.1693H129.809V48.2409C128.936 49.5018 127.724 50.5526 126.172 51.3933C124.652 52.2015 122.89 52.6058 120.885 52.6058C118.622 52.6058 116.553 52.0238 114.678 50.8598C112.835 49.6958 111.364 48.0631 110.264 45.9614C109.197 43.8274 108.664 41.3862 108.664 38.638ZM129.809 38.735C129.809 37.086 129.486 35.6795 128.839 34.5155C128.193 33.3193 127.32 32.4138 126.22 31.7996C125.121 31.1528 123.941 30.8296 122.68 30.8296C121.419 30.8296 120.255 31.1368 119.188 31.7511C118.121 32.3653 117.248 33.2708 116.569 34.467C115.922 35.631 115.599 37.0213 115.599 38.638C115.599 40.2547 115.922 41.6772 116.569 42.9059C117.248 44.1022 118.121 45.0236 119.188 45.6704C120.287 46.3171 121.451 46.6404 122.68 46.6404C123.941 46.6404 125.121 46.3331 126.22 45.7189C127.32 45.0721 128.193 44.1669 128.839 43.0029C129.486 41.8067 129.809 40.384 129.809 38.735Z" fill="#3ECF67"/>
<path d="M82.7918 66.8238H80.0175L79.5408 68.1776H78.4062L80.7803 61.542H82.0387L84.4127 68.1776H83.2685L82.7918 66.8238ZM82.4867 65.9371L81.4094 62.8577L80.3225 65.9371H82.4867Z" fill="black"/>
<path d="M87.1255 64.8503C87.1255 64.202 87.2749 63.6204 87.5736 63.1056C87.8787 62.5907 88.2887 62.1903 88.8035 61.9043C89.3247 61.6119 89.8935 61.4658 90.51 61.4658C91.2156 61.4658 91.8416 61.6405 92.3882 61.9901C92.9412 62.3333 93.3416 62.8227 93.5895 63.4583H92.2833C92.1117 63.1088 91.8734 62.8482 91.5683 62.6766C91.2632 62.5049 90.9105 62.4191 90.51 62.4191C90.0715 62.4191 89.6806 62.5177 89.3374 62.7147C88.9942 62.9117 88.724 63.1946 88.527 63.5632C88.3363 63.9318 88.241 64.3609 88.241 64.8503C88.241 65.3397 88.3363 65.7687 88.527 66.1373C88.724 66.506 88.9942 66.792 89.3374 66.9954C89.6806 67.1924 90.0715 67.2909 90.51 67.2909C90.9105 67.2909 91.2632 67.2051 91.5683 67.0335C91.8734 66.8619 92.1117 66.6013 92.2833 66.2517H93.5895C93.3416 66.8873 92.9412 67.3767 92.3882 67.72C91.8416 68.0632 91.2156 68.2348 90.51 68.2348C89.8872 68.2348 89.3183 68.0918 88.8035 67.8058C88.2887 67.5134 87.8787 67.1098 87.5736 66.595C87.2749 66.0801 87.1255 65.4986 87.1255 64.8503Z" fill="black"/>
<path d="M100.899 66.8238H98.1249L97.6483 68.1776H96.5137L98.8877 61.542H100.146L102.52 68.1776H101.375L100.899 66.8238ZM100.594 65.9371L99.5169 62.8577L98.43 65.9371H100.594Z" fill="black"/>
<path d="M107.759 61.5518C108.464 61.5518 109.081 61.6884 109.608 61.9617C110.142 62.2287 110.552 62.6164 110.838 63.1248C111.131 63.627 111.277 64.2149 111.277 64.8886C111.277 65.5623 111.131 66.1471 110.838 66.6428C110.552 67.1386 110.142 67.5199 109.608 67.7869C109.081 68.0475 108.464 68.1778 107.759 68.1778H105.595V61.5518H107.759ZM107.759 67.2911C108.534 67.2911 109.129 67.0814 109.542 66.6619C109.955 66.2424 110.161 65.6513 110.161 64.8886C110.161 64.1195 109.955 63.5189 109.542 63.0867C109.129 62.6545 108.534 62.4384 107.759 62.4384H106.682V67.2911H107.759Z" fill="black"/>
<path d="M115.484 62.4287V64.3736H117.772V65.2602H115.484V67.2909H118.058V68.1776H114.397V61.542H118.058V62.4287H115.484Z" fill="black"/>
<path d="M128.418 61.5518V68.1778H127.332V63.6397L125.31 68.1778H124.557L122.527 63.6397V68.1778H121.44V61.5518H122.612L124.939 66.7477L127.255 61.5518H128.418Z" fill="black"/>
<path d="M136.8 61.5518L134.607 65.7753V68.1778H133.52V65.7753L131.318 61.5518H132.529L134.064 64.8028L135.599 61.5518H136.8Z" fill="black"/>
</g>
<defs>
<clipPath id="clip0_111_8703">
<rect width="137" height="69" fill="white" transform="translate(0.449463 0.759766)"/>
</clipPath>
</defs>
</svg>
