<svg width="144" height="73" viewBox="0 0 144 73" fill="none" xmlns="http://www.w3.org/2000/svg">
<g clip-path="url(#clip0_111_8700)">
<path d="M97.605 25.6769C99.7322 25.6769 101.623 26.144 103.277 27.078C104.932 27.9786 106.215 29.3295 107.127 31.1308C108.072 32.8989 108.545 35.0336 108.545 37.5354V53.7968H101.454V38.486C101.454 36.2844 100.897 34.5999 99.7829 33.4324C98.6684 32.2316 97.1491 31.6311 95.2243 31.6311C93.2659 31.6311 91.7124 32.2316 90.5645 33.4324C89.4501 34.5999 88.8929 36.2844 88.8929 38.486V53.7968H81.8018V16.7708H88.8929V29.5297C89.8046 28.3288 91.0203 27.395 92.5399 26.7277C94.0594 26.0273 95.7478 25.6769 97.605 25.6769ZM113.465 39.837C113.465 37.0349 114.022 34.55 115.136 32.3817C116.284 30.2135 117.821 28.5457 119.745 27.3782C121.704 26.2106 123.882 25.627 126.28 25.627C128.373 25.627 130.197 26.0439 131.75 26.8778C133.336 27.7117 134.603 28.7624 135.549 30.0301V26.0773H142.69V53.7968H135.549V49.7439C134.637 51.0448 133.371 52.1288 131.75 52.9962C130.162 53.8301 128.322 54.2471 126.229 54.2471C123.865 54.2471 121.704 53.6467 119.745 52.4458C117.821 51.245 116.284 49.5606 115.136 47.3923C114.022 45.1907 113.465 42.6722 113.465 39.837ZM135.549 39.937C135.549 38.2357 135.211 36.7848 134.535 35.5839C133.861 34.3499 132.949 33.4157 131.801 32.782C130.653 32.1148 129.419 31.7813 128.102 31.7813C126.786 31.7813 125.57 32.0982 124.456 32.7319C123.342 33.3656 122.43 34.2998 121.721 35.534C121.046 36.7347 120.708 38.1691 120.708 39.837C120.708 41.5049 121.046 42.9724 121.721 44.2401C122.43 45.4742 123.342 46.4249 124.456 47.0919C125.604 47.7591 126.82 48.0927 128.102 48.0927C129.419 48.0927 130.653 47.7758 131.801 47.1421C132.949 46.4749 133.861 45.5408 134.535 44.34C135.211 43.1059 135.549 41.6381 135.549 39.937Z" fill="#FFC444"/>
<path d="M86.1087 63.0829V63.8235H84.1838V70.0579H83.2619V63.8235H81.3271V63.0829H86.1087ZM92.3085 67.1057C92.3085 67.2792 92.2983 67.4628 92.2781 67.6561H87.841C87.8747 68.1966 88.0604 68.6201 88.3982 68.927C88.7427 69.2273 89.1581 69.3774 89.6442 69.3774C90.0426 69.3774 90.3736 69.2873 90.637 69.1071C90.907 68.9203 91.0962 68.6736 91.2042 68.3667H92.1972C92.0485 68.8938 91.7514 69.3241 91.3056 69.6575C90.8598 69.9845 90.3059 70.1479 89.6442 70.1479C89.1175 70.1479 88.6447 70.0311 88.2261 69.7976C87.814 69.5642 87.4898 69.234 87.2535 68.807C87.0169 68.3734 86.8989 67.8731 86.8989 67.3059C86.8989 66.7388 87.0137 66.242 87.2434 65.8149C87.4729 65.3878 87.7937 65.0611 88.2057 64.8341C88.6244 64.6008 89.1039 64.4839 89.6442 64.4839C90.1711 64.4839 90.637 64.5973 91.0422 64.8242C91.4474 65.0511 91.7579 65.3646 91.9743 65.7648C92.1972 66.1583 92.3085 66.6055 92.3085 67.1057ZM91.3563 66.9157C91.3563 66.5686 91.2784 66.2719 91.1232 66.025C90.9678 65.7716 90.755 65.5814 90.485 65.4546C90.2217 65.3213 89.9279 65.2544 89.6037 65.2544C89.1377 65.2544 88.7393 65.4013 88.4084 65.6948C88.0841 65.9882 87.8983 66.3953 87.8512 66.9157H91.3563ZM93.1806 67.3059C93.1806 66.7388 93.2957 66.2451 93.5251 65.8249C93.7548 65.3978 94.0722 65.0676 94.4774 64.8341C94.8895 64.6008 95.3587 64.4839 95.8854 64.4839C96.5677 64.4839 97.1283 64.6473 97.567 64.9742C98.0128 65.3012 98.3066 65.7548 98.4483 66.3352H97.4557C97.3612 66.0018 97.1755 65.7381 96.8984 65.5447C96.6285 65.3513 96.2907 65.2544 95.8854 65.2544C95.3587 65.2544 94.9333 65.4346 94.609 65.7948C94.285 66.1484 94.1228 66.6522 94.1228 67.3059C94.1228 67.9664 94.285 68.4767 94.609 68.8369C94.9333 69.1972 95.3587 69.3774 95.8854 69.3774C96.2907 69.3774 96.6285 69.2841 96.8984 69.0972C97.1687 68.9103 97.3543 68.6436 97.4557 68.2966H98.4483C98.2999 68.857 98.0026 69.3073 97.557 69.6476C97.1112 69.981 96.554 70.1479 95.8854 70.1479C95.3587 70.1479 94.8895 70.0311 94.4774 69.7976C94.0722 69.5642 93.7548 69.234 93.5251 68.807C93.2957 68.3799 93.1806 67.8795 93.1806 67.3059ZM102.433 64.4739C102.852 64.4739 103.23 64.5639 103.568 64.7442C103.906 64.9175 104.17 65.1812 104.358 65.5347C104.554 65.8881 104.651 66.3185 104.651 66.8256V70.0579H103.74V66.9557C103.74 66.4085 103.602 65.9917 103.325 65.7048C103.048 65.4113 102.67 65.2645 102.19 65.2645C101.704 65.2645 101.316 65.4146 101.025 65.7148C100.742 66.0151 100.6 66.4521 100.6 67.0257V70.0579H99.6784V62.6527H100.6V65.3545C100.782 65.0743 101.032 64.8574 101.349 64.704C101.674 64.5507 102.035 64.4739 102.433 64.4739ZM108.863 64.4739C109.538 64.4739 110.085 64.6773 110.504 65.0843C110.923 65.4846 111.132 66.065 111.132 66.8256V70.0579H110.22V66.9557C110.22 66.4085 110.081 65.9917 109.805 65.7048C109.528 65.4113 109.15 65.2645 108.67 65.2645C108.184 65.2645 107.795 65.4146 107.505 65.7148C107.221 66.0151 107.079 66.4521 107.079 67.0257V70.0579H106.158V64.574H107.079V65.3545C107.262 65.0743 107.508 64.8574 107.819 64.704C108.136 64.5507 108.484 64.4739 108.863 64.4739ZM115.058 70.1479C114.539 70.1479 114.066 70.0311 113.641 69.7976C113.222 69.5642 112.891 69.234 112.648 68.807C112.412 68.3734 112.294 67.8731 112.294 67.3059C112.294 66.7455 112.415 66.2519 112.657 65.8249C112.908 65.3913 113.245 65.0611 113.671 64.8341C114.097 64.6008 114.572 64.4839 115.099 64.4839C115.626 64.4839 116.102 64.6008 116.528 64.8341C116.953 65.0611 117.287 65.3878 117.531 65.8149C117.78 66.242 117.905 66.7388 117.905 67.3059C117.905 67.8731 117.776 68.3734 117.52 68.807C117.271 69.234 116.93 69.5642 116.498 69.7976C116.064 70.0311 115.586 70.1479 115.058 70.1479ZM115.058 69.3473C115.39 69.3473 115.7 69.2706 115.991 69.1172C116.281 68.9639 116.514 68.7337 116.689 68.4267C116.872 68.1197 116.963 67.7462 116.963 67.3059C116.963 66.8656 116.875 66.4921 116.7 66.1851C116.525 65.8781 116.295 65.6515 116.011 65.5047C115.728 65.3513 115.42 65.2745 115.089 65.2745C114.752 65.2745 114.441 65.3513 114.157 65.5047C113.88 65.6515 113.657 65.8781 113.488 66.1851C113.32 66.4921 113.236 66.8656 113.236 67.3059C113.236 67.7529 113.316 68.1297 113.478 68.4367C113.647 68.7436 113.87 68.9738 114.147 69.1272C114.424 69.2741 114.728 69.3473 115.058 69.3473ZM120.039 62.6527V70.0579H119.117V62.6527H120.039ZM124.031 70.1479C123.511 70.1479 123.038 70.0311 122.613 69.7976C122.195 69.5642 121.863 69.234 121.621 68.807C121.383 68.3734 121.266 67.8731 121.266 67.3059C121.266 66.7455 121.388 66.2519 121.631 65.8249C121.88 65.3913 122.219 65.0611 122.644 64.8341C123.069 64.6008 123.545 64.4839 124.072 64.4839C124.599 64.4839 125.075 64.6008 125.5 64.8341C125.926 65.0611 126.26 65.3878 126.504 65.8149C126.753 66.242 126.878 66.7388 126.878 67.3059C126.878 67.8731 126.75 68.3734 126.493 68.807C126.243 69.234 125.902 69.5642 125.47 69.7976C125.037 70.0311 124.558 70.1479 124.031 70.1479ZM124.031 69.3473C124.363 69.3473 124.672 69.2706 124.964 69.1172C125.254 68.9639 125.487 68.7337 125.662 68.4267C125.844 68.1197 125.936 67.7462 125.936 67.3059C125.936 66.8656 125.849 66.4921 125.672 66.1851C125.497 65.8781 125.267 65.6515 124.983 65.5047C124.7 65.3513 124.393 65.2745 124.062 65.2745C123.724 65.2745 123.413 65.3513 123.13 65.5047C122.853 65.6515 122.63 65.8781 122.461 66.1851C122.292 66.4921 122.208 66.8656 122.208 67.3059C122.208 67.7529 122.289 68.1297 122.451 68.4367C122.62 68.7436 122.842 68.9738 123.12 69.1272C123.397 69.2741 123.7 69.3473 124.031 69.3473ZM130.38 64.4839C130.859 64.4839 131.277 64.5873 131.636 64.7941C132.001 65.0011 132.27 65.2612 132.446 65.5747V64.574H133.378V70.1779C133.378 70.6783 133.27 71.1218 133.054 71.5089C132.838 71.9024 132.527 72.2093 132.122 72.4295C131.723 72.6496 131.258 72.7597 130.724 72.7597C129.995 72.7597 129.386 72.5896 128.9 72.2494C128.414 71.9092 128.127 71.4456 128.039 70.8584H128.951C129.053 71.1919 129.262 71.4589 129.579 71.6589C129.896 71.8659 130.278 71.9691 130.724 71.9691C131.231 71.9691 131.642 71.8123 131.96 71.4989C132.284 71.1854 132.446 70.745 132.446 70.1779V69.0271C132.264 69.3473 131.993 69.6142 131.636 69.8277C131.277 70.0411 130.859 70.1479 130.38 70.1479C129.887 70.1479 129.437 70.0278 129.032 69.7876C128.634 69.5475 128.32 69.2105 128.09 68.777C127.861 68.3434 127.746 67.8495 127.746 67.2959C127.746 66.7355 127.861 66.2451 128.09 65.8249C128.32 65.3978 128.634 65.0676 129.032 64.8341C129.437 64.6008 129.887 64.4839 130.38 64.4839ZM132.446 67.3059C132.446 66.8923 132.361 66.5321 132.192 66.2252C132.024 65.9182 131.794 65.6848 131.504 65.5246C131.22 65.3578 130.906 65.2745 130.562 65.2745C130.217 65.2745 129.903 65.3545 129.619 65.5147C129.337 65.6748 129.11 65.9082 128.941 66.2151C128.772 66.5221 128.688 66.8823 128.688 67.2959C128.688 67.7162 128.772 68.0832 128.941 68.3967C129.11 68.7036 129.337 68.9403 129.619 69.1071C129.903 69.2673 130.217 69.3473 130.562 69.3473C130.906 69.3473 131.22 69.2673 131.504 69.1071C131.794 68.9403 132.024 68.7036 132.192 68.3967C132.361 68.0832 132.446 67.7195 132.446 67.3059ZM139.718 64.574L136.375 72.6397H135.422L136.517 69.9978L134.277 64.574H135.3L137.043 69.0171L138.765 64.574H139.718Z" fill="black"/>
<path d="M0.449463 13.7598C0.449463 6.58007 6.26976 0.759766 13.4495 0.759766H59.4495C66.6292 0.759766 72.4495 6.58006 72.4495 13.7598V58.7598C72.4495 65.9395 66.6292 71.7598 59.4495 71.7598H13.4495C6.26976 71.7598 0.449463 65.9395 0.449463 58.7598V13.7598Z" fill="white"/>
<path fill-rule="evenodd" clip-rule="evenodd" d="M13.1123 0.759766C6.11877 0.759766 0.449463 6.36017 0.449463 13.2686V59.301C0.449463 66.2093 6.11877 71.8098 13.1123 71.8098H59.7111C66.7044 71.8098 72.3738 66.2093 72.3738 59.301V53.7973H67.7337V49.7444C66.822 51.0453 65.5557 52.1293 63.9349 52.9967C62.3478 53.8305 60.5076 54.2476 58.4139 54.2476C56.0503 54.2476 53.889 53.6472 51.9306 52.4464C50.0058 51.2455 48.4694 49.561 47.3214 47.3928C46.207 45.1912 45.6499 42.6727 45.6499 39.8374C45.6499 37.0355 46.207 34.5504 47.3214 32.3822C48.4694 30.2139 50.0058 28.5463 51.9306 27.3787C53.889 26.2111 56.0671 25.6275 58.4646 25.6275C60.5582 25.6275 62.3817 26.0445 63.9349 26.8783C65.5221 27.7122 66.7883 28.7629 67.7337 30.0306V26.0778H72.3738V13.2686C72.3738 6.36017 66.7044 0.759766 59.7111 0.759766H13.1123ZM22.1289 52.8967C24.1212 53.7305 26.3499 54.1475 28.8148 54.1475C31.415 54.1475 33.6603 53.6804 35.5513 52.7465C37.4425 51.7791 38.8773 50.4949 39.8567 48.8939C40.836 47.2927 41.3255 45.5582 41.3255 43.6901C41.3255 41.5219 40.8021 39.7706 39.7554 38.4365C38.7087 37.1022 37.4591 36.1015 36.0073 35.4344C34.5553 34.7672 32.6813 34.1001 30.385 33.4329C28.6966 32.9326 27.3796 32.4991 26.4343 32.1321C25.5225 31.7317 24.7458 31.2313 24.1043 30.631C23.4964 29.9973 23.1925 29.2132 23.1925 28.2793C23.1925 26.9451 23.5978 25.9276 24.4082 25.2272C25.2523 24.5267 26.3666 24.1765 27.7511 24.1765C29.3383 24.1765 30.6046 24.5767 31.5499 25.3772C32.5293 26.1445 33.0526 27.1285 33.1201 28.3293H40.9204C40.6841 25.1939 39.4178 22.7588 37.1215 21.0242C34.8592 19.2563 31.9045 18.3723 28.2576 18.3723C25.8264 18.3723 23.6653 18.7893 21.7743 19.6232C19.8834 20.4238 18.4144 21.5913 17.3677 23.1257C16.3209 24.66 15.7975 26.4612 15.7975 28.5295C15.7975 30.731 16.3041 32.4991 17.3171 33.8332C18.3639 35.1342 19.5964 36.1181 21.0146 36.7853C22.4665 37.419 24.3407 38.0695 26.6368 38.7366C28.3253 39.2038 29.6422 39.6373 30.5876 40.0376C31.5669 40.4046 32.3774 40.9214 33.0188 41.5886C33.6603 42.2559 33.9812 43.1065 33.9812 44.1404C33.9812 45.4081 33.5084 46.4421 32.563 47.2427C31.6176 48.0099 30.3173 48.3935 28.6629 48.3935C27.042 48.3935 25.7588 47.9764 24.8134 47.1426C23.9017 46.3088 23.3952 45.1745 23.2939 43.7402H15.6962C15.73 45.8749 16.3209 47.7262 17.469 49.2941C18.6171 50.8619 20.1704 52.0628 22.1289 52.8967Z" fill="#FFC444"/>
<path d="M66.7207 35.5845C67.3961 36.7853 67.7337 38.2363 67.7337 39.9375C67.7337 41.6387 67.3961 43.1065 66.7207 44.3406C66.0453 45.5414 65.1336 46.4754 63.9855 47.1426C62.8375 47.7763 61.6049 48.0932 60.2881 48.0932C59.0048 48.0932 57.7892 47.7598 56.6411 47.0925C55.5269 46.4253 54.6151 45.4747 53.906 44.2405C53.2306 42.9729 52.893 41.5053 52.893 39.8374C52.893 38.1696 53.2306 36.7352 53.906 35.5344C54.6151 34.3003 55.5269 33.3661 56.6411 32.7324C57.7555 32.0987 58.9711 31.7817 60.2881 31.7817C61.6049 31.7817 62.8375 32.1153 63.9855 32.7825C65.1336 33.4161 66.0453 34.3504 66.7207 35.5845Z" fill="#FFC444"/>
</g>
<defs>
<clipPath id="clip0_111_8700">
<rect width="143" height="72" fill="white" transform="translate(0.449463 0.759766)"/>
</clipPath>
</defs>
</svg>
